<?xml version="1.0" encoding="UTF-8" standalone="no"?>
<svg width="12px" height="12px" viewBox="0 0 12 12" version="1.1" xmlns="http://www.w3.org/2000/svg" xmlns:xlink="http://www.w3.org/1999/xlink">
    <!-- Generator: Sketch 48.2 (47327) - http://www.bohemiancoding.com/sketch -->
    <title>Page 1</title>
    <desc>Created with Sketch.</desc>
    <defs>
        <polygon id="path-1" points="0 -0.000327272727 11.2156364 -0.000327272727 11.2156364 11.2161818 0 11.2161818"></polygon>
    </defs>
    <g id="A4" stroke="none" stroke-width="1" fill="none" fill-rule="evenodd" transform="translate(-50.000000, -335.000000)">
        <g id="Group" transform="translate(50.000000, 270.000000)">
            <g id="Page-1" transform="translate(0.000000, 65.200000)">
                <mask id="mask-2" fill="white">
                    <use xlink:href="#path-1"></use>
                </mask>
                <g id="Clip-2"></g>
                <path d="M8.33323636,10.0336364 C8.18814545,8.51072727 7.84341818,7.10345455 7.40923636,5.85763636 C8.48269091,5.58054545 9.61505455,5.61545455 10.7899636,5.94927273 C10.6743273,7.67727273 9.72850909,9.17181818 8.33323636,10.0336364 M7.0416,5.98963636 C7.48014545,7.254 7.82814545,8.68527273 7.95905455,10.2376364 C7.24996364,10.5998182 6.45796364,10.8234545 5.60814545,10.8234545 C4.46269091,10.8234545 3.41214545,10.4416364 2.55141818,9.81327273 C3.85941818,7.80927273 5.37687273,6.53509091 7.0416,5.98963636 M0.536509091,4.43618182 C1.67541818,4.62272727 2.6856,4.72636364 3.57141818,4.72636364 C4.66450909,4.72636364 5.57541818,4.57363636 6.35323636,4.26381818 C6.54850909,4.69363636 6.74050909,5.14854545 6.92050909,5.63618182 C5.17941818,6.21327273 3.5856,7.52890909 2.24923636,9.56454545 C1.12341818,8.60672727 0.392509091,7.19836364 0.392509091,5.60781818 C0.392509091,5.20418182 0.448145455,4.81363636 0.536509091,4.43618182 M4.20087273,0.610363636 C4.44632727,0.924545455 5.31905455,2.10163636 6.17432727,3.87872727 C4.84232727,4.40672727 3.0816,4.44818182 0.654327273,4.05654545 C1.18014545,2.38636364 2.51105455,1.08818182 4.20087273,0.610363636 M8.75432727,1.47654545 C8.1816,2.52818182 7.46596364,3.26236364 6.53214545,3.72381818 C5.75214545,2.09727273 4.95032727,0.952909091 4.60669091,0.494727273 C4.93178182,0.430363636 5.26450909,0.393272727 5.60814545,0.393272727 C6.79505455,0.393272727 7.87723636,0.806727273 8.75432727,1.47654545 M10.8183273,5.55545455 C9.60196364,5.22381818 8.41614545,5.20418182 7.28923636,5.50527273 C7.10378182,5.00454545 6.90632727,4.53763636 6.7056,4.09690909 C7.69178182,3.61254545 8.44778182,2.83581818 9.06196364,1.73072727 C10.1223273,2.67545455 10.8030545,4.03145455 10.8183273,5.55545455 M5.60814545,-0.000545454545 C2.51541818,-0.000545454545 -0.000218181818,2.51509091 -0.000218181818,5.60781818 C-0.000218181818,8.70054545 2.51541818,11.2161818 5.60814545,11.2161818 C8.70087273,11.2161818 11.2165091,8.70054545 11.2165091,5.60781818 C11.2165091,2.51509091 8.70087273,-0.000545454545 5.60814545,-0.000545454545" id="Fill-1" fill="#010202" mask="url(#mask-2)"></path>
            </g>
        </g>
    </g>
</svg>