<?xml version="1.0" encoding="UTF-8" standalone="no"?>
<svg width="595px" height="208px" viewBox="0 0 595 208" version="1.1" xmlns="http://www.w3.org/2000/svg" xmlns:xlink="http://www.w3.org/1999/xlink">
    <!-- Generator: Sketch 48.2 (47327) - http://www.bohemiancoding.com/sketch -->
    <title>Group 2</title>
    <desc>Created with Sketch.</desc>
    <defs>
        <rect id="path-1" x="0" y="0" width="600" height="208"></rect>
    </defs>
    <g id="A4" stroke="none" stroke-width="1" fill="none" fill-rule="evenodd">
        <g id="Group-2">
            <g id="Oval-9">
                <mask id="mask-2" fill="white">
                    <use xlink:href="#path-1"></use>
                </mask>
                <use id="Mask" fill="#EFE144" xlink:href="#path-1"></use>
                <path d="M-2.85,210 L-2.85,205.1 C25.5,204.05 32.15,199.5 32.15,187.25 L32.15,-11.2 C32.15,-23.45 25.5,-28.35 -2.85,-29.4 L-2.85,-33.95 L120.35,-33.95 C198.75,-33.95 217.3,-3.5 217.3,24.15 C217.3,50.75 196.65,74.55 140.3,80.5 L140.3,81.9 C198.4,83.3 225.7,108.85 225.7,142.1 C225.7,177.1 202.25,210 123.5,210 L-2.85,210 Z M90.95,79.1 L111.95,79.1 C150.1,79.1 158.5,57.4 158.5,25.2 C158.5,-4.55 150.8,-28 110.9,-28 L90.95,-28 L90.95,79.1 Z M90.95,203.7 L116.15,203.7 C161.3,203.7 165.85,177.8 165.85,141.75 C165.85,111.65 155,85.05 112.3,85.05 L90.95,85.05 L90.95,203.7 Z" id="B" fill-opacity="0.42" fill="#FBF6C9" mask="url(#mask-2)"></path>
                <path d="M268.482,62.628 L274.524,62.628 C286.926,62.628 289.788,58.918 289.788,46.198 C289.788,35.28 285.972,28.92 273.57,28.92 L268.482,28.92 L268.482,62.628 Z M268.482,64.324 L268.482,94.11 C268.482,98.032 271.768,99.198 278.446,99.516 L278.446,101 L240.074,101 L240.074,99.516 C248.66,99.198 250.674,97.82 250.674,94.11 L250.674,34.008 C250.674,30.298 248.66,28.814 240.074,28.496 L240.074,27.118 L278.34,27.118 C300.6,27.118 308.02,35.492 308.02,45.032 C308.02,54.042 302.402,60.614 285.548,63.052 L285.548,63.37 C301.13,63.688 305.582,70.578 306.748,79.906 L307.49,89.764 C308.55,97.82 309.928,99.092 318.408,99.41 L318.408,100.788 C314.168,101.318 310.458,101.424 307.066,101.424 C292.226,101.424 290,97.29 289.258,88.174 L288.516,79.27 C287.562,68.458 284.7,64.324 272.934,64.324 L268.482,64.324 Z" id="R" fill-opacity="0.42" fill="#FBF6C9" mask="url(#mask-2)" transform="translate(279.241000, 64.271000) rotate(-270.000000) translate(-279.241000, -64.271000) "></path>
                <path d="M435.6,283.85 L413.9,222.6 L335.15,222.6 L322.55,256.2 C309.25,291.55 315.2,305.55 347.75,310.1 L347.75,315 L264.45,315 L264.45,310.1 C287.55,304.15 301.55,287.7 314.85,253.05 L386.25,66.15 L417.05,66.15 L496.85,283.15 C503.5,301 508.75,305.9 534.65,310.1 L534.65,315 L401.3,315 L401.3,310.1 C434.9,308.35 441.9,301.35 435.6,283.85 Z M337.6,215.6 L411.45,215.6 L376.1,116.55 L374.35,116.55 L337.6,215.6 Z" id="A" fill-opacity="0.42" fill="#FBF6C9" mask="url(#mask-2)"></path>
                <path d="M616.25,136.746 L529.532,26.36 L529.338,26.36 L529.338,101.632 C529.338,121.42 536.516,130.344 556.304,132.284 L556.304,135 L500.432,135 L500.432,132.284 C518.668,130.15 524.488,121.42 524.488,101.632 L524.488,25.196 C524.488,13.168 517.116,3.468 500.432,2.304 L500.432,-0.218 L549.708,-0.218 L622.652,93.096 L622.846,93.096 L622.846,32.956 C622.846,13.556 615.086,4.438 595.492,2.304 L595.492,-0.218 L651.752,-0.218 L651.752,2.304 C633.516,4.826 627.696,13.556 627.696,32.956 L627.696,136.746 L616.25,136.746 Z" id="N" fill-opacity="0.42" fill="#FBF6C9" mask="url(#mask-2)"></path>
            </g>
            <g id="Path-41-+-Path-43" transform="translate(454.000000, 149.623005)" stroke="#323230" stroke-width="2">
                <path d="M0,14.7576825 C21.8276593,14.7576825 25.1726688,0.0214305818 25.1726688,0.0214305818 C25.1726688,0.0214305818 30.5299682,14.7576825 48.7227702,14.7576821 C66.9155722,14.7576816 73.3961338,0.0214305818 73.3961338,0.0214305818 C73.3961338,0.0214305818 81.0661505,14.7576818 97,14.7576821" id="Path-41"></path>
                <path d="M0,39.1045335 C21.8276593,39.1045335 25.1726688,24.3682816 25.1726688,24.3682816 C25.1726688,24.3682816 30.5299682,39.1045335 48.7227702,39.1045331 C66.9155722,39.1045326 73.3961338,24.3682816 73.3961338,24.3682816 C73.3961338,24.3682816 81.0661505,39.1045328 97,39.1045331" id="Path-43"></path>
            </g>
            <g id="Path-2-+-Line-+-Line-2" transform="translate(36.500000, 35.500000) rotate(-360.000000) translate(-36.500000, -35.500000) translate(26.000000, 25.000000)" stroke="#323230" stroke-linecap="square" stroke-width="2">
                <g id="Line-+-Line-2">
                    <path d="M0.456372549,0.456372549 L20.1280935,20.1280935" id="Line"></path>
                    <path d="M0.456372549,0.456372549 L20.1280935,20.1280935" id="Line-2" transform="translate(10.496569, 10.496569) rotate(-90.000000) translate(-10.496569, -10.496569) "></path>
                </g>
            </g>
            <g id="Path-2-+-Line-+-Line-2-Copy" transform="translate(570.020815, 109.020815) rotate(-45.000000) translate(-570.020815, -109.020815) translate(561.520815, 100.520815)" stroke="#323230" stroke-linecap="square" stroke-width="2">
                <g id="Line-+-Line-2">
                    <path d="M0.369444444,0.369444444 L16.2941709,16.2941709" id="Line"></path>
                    <path d="M0.369444444,0.369444444 L16.2941709,16.2941709" id="Line-2" transform="translate(8.497222, 8.497222) rotate(-90.000000) translate(-8.497222, -8.497222) "></path>
                </g>
            </g>
            <circle id="Oval-3" stroke="#29292A" stroke-width="2" cx="403.5" cy="111.5" r="19.5"></circle>
            <circle id="Oval-3" stroke="#29292A" stroke-width="2" cx="132" cy="104" r="9"></circle>
            <polygon id="Polygon" stroke="#29292A" stroke-width="2" points="242 27 266 68.5692194 218 68.5692194"></polygon>
        </g>
    </g>
</svg>