<?xml version="1.0" encoding="UTF-8" standalone="no"?><svg version="1.1" viewBox="0 0 48 48" xmlns="http://www.w3.org/2000/svg" xmlns:xlink="http://www.w3.org/1999/xlink"><!--Generated by IJSVG (https://github.com/curthard89/IJSVG)--><g fill="#000000"><path d="M0,0v27l9.9476e-14,1.35896e-06c7.50534e-07,4.97056 4.02944,9 9,9h30l-3.93403e-07,-7.10543e-15c4.97056,2.1727e-07 9,-4.02944 9,-9v-27h-48Zm46,27v0c0,3.86599 -3.13401,7 -7,7h-30l-3.0598e-07,-7.10543e-15c-3.86599,-1.68988e-07 -7,-3.13401 -7,-7c0,0 0,0 0,0v-25h44v25Z" transform="translate(0, 6)"></path><path d="M36.86,1.48l-1.34,-1.48l-17.14,15.46l-17.04,-15.44l-1.34,1.48l18.38,16.66l18.48,-16.68Z" transform="translate(5.62, 12.19)"></path></g></svg>