<?xml version="1.0" encoding="UTF-8" standalone="no"?><svg version="1.1" viewBox="0 0 48 48" xmlns="http://www.w3.org/2000/svg" xmlns:xlink="http://www.w3.org/1999/xlink"><!--Generated by IJSVG (https://github.com/curthard89/IJSVG)--><g fill="#000000"><path d="M8,8v-8h-8v33l1.72307e-13,2.26494e-06c1.25089e-06,8.28427 6.71573,15 15,15c8.28427,-1.25089e-06 15,-6.71573 15,-15v-25h-22Zm20,25v0c0,7.1797 -5.8203,13 -13,13c-7.1797,0 -13,-5.8203 -13,-13v-31h4v8h22v23Z" transform="translate(9, 0)"></path><path d="M0,12h18v-12h-18v12Zm2,-10h14v8h-14v-8Z" transform="translate(15, 14)"></path></g></svg>