<?xml version="1.0" encoding="UTF-8" standalone="no"?><svg version="1.1" viewBox="0 0 48 48" xmlns="http://www.w3.org/2000/svg" xmlns:xlink="http://www.w3.org/1999/xlink"><!--Generated by IJSVG (https://github.com/curthard89/IJSVG)--><g fill="#000000"><path d="M36.121,7.90016l-0.1,-0.1l1.79889e-07,1.80816e-07c-7.72807,-7.76789 -20.29,-7.80016 -28.0579,-0.0720959c-0.0240936,0.0239701 -0.0481255,0.048002 -0.0720955,0.0720955l-0.11,0.1l-4.13587e-07,4.14883e-07c-7.78102,7.8054 -7.78102,20.4346 8.27174e-07,28.24l14.17,13.76l14.17,-13.81l7.0228e-08,-7.06969e-08c7.74785,-7.79958 7.74785,-20.3904 -1.40456e-07,-28.19Zm-1.41,26.78l-12.76,12.39l-12.76,-12.39l-5.27764e-07,-5.29666e-07c-6.99893,-7.02416 -6.99893,-18.3858 1.05553e-06,-25.41l0.11,-0.11l1.15234e-06,-1.15841e-06c6.95251,-6.98916 18.2545,-7.01888 25.2436,-0.0663729c0.0221832,0.0220668 0.0443083,0.044192 0.0663752,0.0663752l0.1,0.1l-9.12369e-08,-9.14941e-08c7.00557,7.02532 7.00557,18.3947 -1.49763e-06,25.42Z" transform="translate(2.04898, -1.90016)"></path><path d="M6,0l-2.62268e-07,7.10543e-15c-3.31371,1.44847e-07 -6,2.68629 -6,6c1.44847e-07,3.31371 2.68629,6 6,6c3.31371,-1.44847e-07 6,-2.68629 6,-6l7.10543e-15,2.62268e-07c0,-3.31371 -2.68629,-6 -6,-6Zm0,10l-1.74846e-07,-3.55271e-15c-2.20914,-9.65645e-08 -4,-1.79086 -4,-4c9.65645e-08,-2.20914 1.79086,-4 4,-4c2.20914,9.65645e-08 4,1.79086 4,4l7.10543e-15,-1.74846e-07c0,2.20914 -1.79086,4 -4,4Z" transform="translate(18, 13)"></path></g></svg>