<?xml version="1.0" encoding="UTF-8" standalone="no"?>
<svg width="400px" height="100px" viewBox="0 0 400 100" version="1.1" xmlns="http://www.w3.org/2000/svg" xmlns:xlink="http://www.w3.org/1999/xlink">
    <!-- Generator: Sketch 3.8.3 (29802) - http://www.bohemiancoding.com/sketch -->
    <title>Group 18</title>
    <desc>Created with Sketch.</desc>
    <defs></defs>
    <g id="Layouts" stroke="none" stroke-width="1" fill="none" fill-rule="evenodd">
        <g id="Learn-Copy" transform="translate(-800.000000, -1247.000000)" stroke-width="4" stroke="#323230">
            <g id="Group-18" transform="translate(800.000000, 1256.000000)">
                <g id="Path-41-+-Path-43">
                    <path d="M0,37.1507232 C45.005483,37.1507232 51.9024099,0.0539489592 51.9024099,0.0539489592 C51.9024099,0.0539489592 62.9483881,37.1507231 100.45932,37.150722 C137.970252,37.150721 151.332235,0.0539489592 151.332235,0.0539489592 C151.332235,0.0539489592 167.146702,37.1507215 200,37.150722" id="Path-41"></path>
                    <path d="M0,88.4410457 C45.005483,88.4410457 51.9024099,51.3442715 51.9024099,51.3442715 C51.9024099,51.3442715 62.9483881,88.4410457 100.45932,88.4410446 C137.970252,88.4410435 151.332235,51.3442715 151.332235,51.3442715 C151.332235,51.3442715 167.146702,88.4410441 200,88.4410446" id="Path-43"></path>
                </g>
                <g id="Path-41-+-Path-43" transform="translate(200.000000, 0.000000)">
                    <path d="M0,37.1507232 C45.005483,37.1507232 51.9024099,0.0539489592 51.9024099,0.0539489592 C51.9024099,0.0539489592 62.9483881,37.1507231 100.45932,37.150722 C137.970252,37.150721 151.332235,0.0539489592 151.332235,0.0539489592 C151.332235,0.0539489592 167.146702,37.1507215 200,37.150722" id="Path-41"></path>
                    <path d="M0,88.4410457 C45.005483,88.4410457 51.9024099,51.3442715 51.9024099,51.3442715 C51.9024099,51.3442715 62.9483881,88.4410457 100.45932,88.4410446 C137.970252,88.4410435 151.332235,51.3442715 151.332235,51.3442715 C151.332235,51.3442715 167.146702,88.4410441 200,88.4410446" id="Path-43"></path>
                </g>
            </g>
        </g>
    </g>
</svg>