<svg width="1338" height="1160" viewBox="0 0 1338 1160" xmlns="http://www.w3.org/2000/svg"><title>big-letters</title><g fill="#EFE145" fill-rule="evenodd"><path d="M67.296 505h158.576v-5.088c-39.856-1.272-44.944-6.784-44.944-22.472v-98.368H203.4c99.64 0 133.136-37.736 133.136-85.224 0-50.456-30.952-84.376-132.288-84.376H67.296v5.512c34.344 1.272 42.4 7.208 42.4 22.048V477.44c0 14.84-8.056 20.352-42.4 21.624V505zm113.632-133.136V216.68h19.504c47.912 0 63.176 30.528 63.176 77.168 0 53-13.992 78.016-64.872 78.016h-17.808zM454.688 927H612.84v-5.936c-35.192-1.272-43.672-6.784-43.672-21.624V659.032c0-14.84 8.48-20.776 43.672-22.048v-5.512H454.688v5.512c35.192 1.272 43.672 7.208 43.672 22.048V899.44c0 14.84-8.48 20.352-43.672 21.624V927zM749.141 1067.253h3.708l17.613-16.068c15.759 8.961 39.552 14.832 57.165 14.832 52.839 0 75.705-36.153 75.705-73.851 0-40.17-33.063-54.075-62.418-63.345-36.771-11.433-55.62-23.484-55.62-46.041 0-22.248 18.231-34.299 36.771-34.299 23.175 0 43.26 19.467 66.126 63.345h4.944v-71.07h-3.708l-14.832 14.832c-12.36-7.107-29.973-12.978-48.204-12.978-44.805 0-75.087 27.501-75.087 68.598 0 39.861 33.372 53.457 67.362 64.581 36.153 11.742 54.384 24.72 54.384 47.586 0 19.776-14.214 36.771-40.17 36.771-28.737 0-56.547-27.501-78.795-72.306h-4.944v79.413zM1027.09 710.142v175.824h6.216c.888-39.516 7.104-50.616 22.644-50.616h273.06v6.216c0 34.188-35.52 59.94-99.456 93.684l.888 7.104 106.116-2.22v-284.16l-106.116-2.664-.888 7.104c63.936 33.744 99.456 59.496 99.456 93.684v6.66h-273.06c-15.54 0-21.756-11.544-22.644-50.616h-6.216zM218.45 740h68.904v-2.436c-15.486-.348-19.836-2.784-19.836-8.874V621.68h2.436c13.398 0 23.49 13.92 36.714 38.976l2.784-.348-.87-41.586h-111.36l-1.044 41.586 2.784.348c13.224-25.056 23.316-38.976 36.714-38.976h2.61v107.01c0 6.09-4.524 8.526-19.836 8.874V740zM699.324 424.572h78.864v17.608c0 33.48-14.88 43.4-38.44 43.4-26.288 0-40.424-6.944-40.424-40.176v-20.832zm-4.712 0v18.848c0 28.768-6.448 35.464-31.496 38.192l-22.816 2.48c-22.32 2.48-31.496 7.44-31.496 34.224 0 8.184.744 17.112 2.728 25.544h2.976c.248-21.328 3.224-25.296 25.296-28.768l14.136-1.736c25.048-3.472 41.416-12.152 42.656-48.856h.744c5.704 38.192 22.32 52.576 43.648 52.576 23.312 0 41.912-19.344 41.912-70.432v-78.12h-2.976c-.744 21.576-6.448 27.032-16.368 27.032h-133.92c-10.168 0-15.624-5.456-16.368-27.032h-3.224v82.088h3.224c.744-20.832 5.704-26.04 16.368-26.04h64.976zM1168.887 552.169c134.685 0 231.264-93.951 231.264-241.776 0-147.168-93.294-238.491-231.264-238.491-134.028 0-230.607 94.608-230.607 241.119 0 147.825 93.294 239.148 230.607 239.148zm3.285-12.483c-76.869 0-113.661-70.299-113.661-227.979 0-157.023 31.536-227.322 107.748-227.322s113.661 70.299 113.661 227.322c0 157.68-31.536 227.979-107.748 227.979z"/></g></svg>