<?xml version="1.0" encoding="UTF-8" standalone="no"?>
<svg width="1338px" height="1160px" viewBox="0 0 1338 1160" version="1.1" xmlns="http://www.w3.org/2000/svg" xmlns:xlink="http://www.w3.org/1999/xlink" xmlns:sketch="http://www.bohemiancoding.com/sketch/ns">
    <!-- Generator: Sketch 3.3.2 (12043) - http://www.bohemiancoding.com/sketch -->
    <title>big-letters</title>
    <desc>Created with Sketch.</desc>
    <defs></defs>
    <g id="Page-1" stroke="none" stroke-width="1" fill="none" fill-rule="evenodd" sketch:type="MSPage">
        <g id="big-letters" sketch:type="MSArtboardGroup" fill="#EFE145">
            <g id="BIG-LETTERS-Copy" sketch:type="MSLayerGroup" transform="translate(67.000000, 71.000000)">
                <path d="M0.296,434 L158.872,434 L158.872,428.912 C119.016,427.64 113.928,422.128 113.928,406.44 L113.928,308.072 L136.4,308.072 C236.04,308.072 269.536,270.336 269.536,222.848 C269.536,172.392 238.584,138.472 137.248,138.472 L0.296,138.472 L0.296,143.984 C34.64,145.256 42.696,151.192 42.696,166.032 L42.696,406.44 C42.696,421.28 34.64,426.792 0.296,428.064 L0.296,434 Z M113.928,300.864 L113.928,145.68 L133.432,145.68 C181.344,145.68 196.608,176.208 196.608,222.848 C196.608,275.848 182.616,300.864 131.736,300.864 L113.928,300.864 Z" id="P" sketch:type="MSShapeGroup"></path>
                <path d="M387.688,856 L545.84,856 L545.84,850.064 C510.648,848.792 502.168,843.28 502.168,828.44 L502.168,588.032 C502.168,573.192 510.648,567.256 545.84,565.984 L545.84,560.472 L387.688,560.472 L387.688,565.984 C422.88,567.256 431.36,573.192 431.36,588.032 L431.36,828.44 C431.36,843.28 422.88,848.792 387.688,850.064 L387.688,856 Z" id="I" sketch:type="MSShapeGroup"></path>
                <path d="M682.141,996.253 L685.849,996.253 L703.462,980.185 C719.221,989.146 743.014,995.017 760.627,995.017 C813.466,995.017 836.332,958.864 836.332,921.166 C836.332,880.996 803.269,867.091 773.914,857.821 C737.143,846.388 718.294,834.337 718.294,811.78 C718.294,789.532 736.525,777.481 755.065,777.481 C778.24,777.481 798.325,796.948 821.191,840.826 L826.135,840.826 L826.135,769.756 L822.427,769.756 L807.595,784.588 C795.235,777.481 777.622,771.61 759.391,771.61 C714.586,771.61 684.304,799.111 684.304,840.208 C684.304,880.069 717.676,893.665 751.666,904.789 C787.819,916.531 806.05,929.509 806.05,952.375 C806.05,972.151 791.836,989.146 765.88,989.146 C737.143,989.146 709.333,961.645 687.085,916.84 L682.141,916.84 L682.141,996.253 Z" id="S" sketch:type="MSShapeGroup"></path>
                <path d="M1016.7,892 L1192.524,892 L1192.524,885.784 C1153.008,884.896 1141.908,878.68 1141.908,863.14 L1141.908,590.08 L1148.124,590.08 C1182.312,590.08 1208.064,625.6 1241.808,689.536 L1248.912,688.648 L1246.692,582.532 L962.532,582.532 L959.868,688.648 L966.972,689.536 C1000.716,625.6 1026.468,590.08 1060.656,590.08 L1067.316,590.08 L1067.316,863.14 C1067.316,878.68 1055.772,884.896 1016.7,885.784 L1016.7,892 Z" id="T" sketch:type="MSShapeGroup" transform="translate(1114.824000, 737.266000) rotate(-270.000000) translate(-1114.824000, -737.266000) "></path>
                <path d="M151.45,669 L220.354,669 L220.354,666.564 C204.868,666.216 200.518,663.78 200.518,657.69 L200.518,550.68 L202.954,550.68 C216.352,550.68 226.444,564.6 239.668,589.656 L242.452,589.308 L241.582,547.722 L130.222,547.722 L129.178,589.308 L131.962,589.656 C145.186,564.6 155.278,550.68 168.676,550.68 L171.286,550.68 L171.286,657.69 C171.286,663.78 166.762,666.216 151.45,666.564 L151.45,669 Z" id="T" sketch:type="MSShapeGroup"></path>
                <path d="M597.232,381.72 L597.232,302.856 L614.84,302.856 C648.32,302.856 658.24,317.736 658.24,341.296 C658.24,367.584 651.296,381.72 618.064,381.72 L597.232,381.72 Z M597.232,386.432 L616.08,386.432 C644.848,386.432 651.544,392.88 654.272,417.928 L656.752,440.744 C659.232,463.064 664.192,472.24 690.976,472.24 C699.16,472.24 708.088,471.496 716.52,469.512 L716.52,466.536 C695.192,466.288 691.224,463.312 687.752,441.24 L686.016,427.104 C682.544,402.056 673.864,385.688 637.16,384.448 L637.16,383.704 C675.352,378 689.736,361.384 689.736,340.056 C689.736,316.744 670.392,298.144 619.304,298.144 L541.184,298.144 L541.184,301.12 C562.76,301.864 568.216,307.568 568.216,317.488 L568.216,451.408 C568.216,461.576 562.76,467.032 541.184,467.776 L541.184,471 L623.272,471 L623.272,467.776 C602.44,467.032 597.232,462.072 597.232,451.408 L597.232,386.432 Z" id="R" sketch:type="MSShapeGroup" transform="translate(628.852000, 385.192000) rotate(-270.000000) translate(-628.852000, -385.192000) "></path>
                <path d="M1101.887,481.169 C1236.572,481.169 1333.151,387.218 1333.151,239.393 C1333.151,92.225 1239.857,0.902 1101.887,0.902 C967.859,0.902 871.28,95.51 871.28,242.021 C871.28,389.846 964.574,481.169 1101.887,481.169 L1101.887,481.169 Z M1105.172,468.686 C1028.303,468.686 991.511,398.387 991.511,240.707 C991.511,83.684 1023.047,13.385 1099.259,13.385 C1175.471,13.385 1212.92,83.684 1212.92,240.707 C1212.92,398.387 1181.384,468.686 1105.172,468.686 L1105.172,468.686 Z" id="O" sketch:type="MSShapeGroup"></path>
            </g>
        </g>
    </g>
</svg>