<?xml version="1.0" encoding="UTF-8" standalone="no"?>
<svg width="475px" height="64px" viewBox="0 0 475 64" version="1.1" xmlns="http://www.w3.org/2000/svg" xmlns:xlink="http://www.w3.org/1999/xlink">
    <!-- Generator: Sketch 48.1 (47250) - http://www.bohemiancoding.com/sketch -->
    <title>Group 11</title>
    <desc>Created with Sketch.</desc>
    <defs></defs>
    <g id="Work" stroke="none" stroke-width="1" fill="none" fill-rule="evenodd" transform="translate(-438.000000, -1413.000000)">
        <g id="Group-11" transform="translate(440.000000, 1415.000000)" stroke-width="4">
            <g id="Group-10">
                <g id="suitcase" transform="translate(202.000000, 0.000000)" stroke="#EFE144">
                    <path d="M0,11.826087 L68,11.826087 L68,47.3043478 C68,53.8086957 62.6782609,59.1304348 56.173913,59.1304348 L11.826087,59.1304348 C5.32173913,59.1304348 0,53.8086957 0,47.3043478 L0,11.826087 Z" id="Shape"></path>
                    <path d="M20.6956522,11.826087 L22.4695652,4.43478261 C23.2086957,1.77391304 25.573913,0 28.2347826,0 L39.7652174,0 C42.426087,0 44.7913043,1.77391304 45.5304348,4.43478261 L47.3043478,11.826087" id="Shape"></path>
                    <path d="M17.7391304,11.826087 L17.7391304,59.1304348" id="Shape"></path>
                    <path d="M50.2608696,11.826087 L50.2608696,59.1304348" id="Shape"></path>
                </g>
                <g id="Group-9" transform="translate(0.000000, 34.000000)" stroke="#DDDBCC" stroke-linecap="square">
                    <path d="M166.003012,2 L0,2" id="Line"></path>
                    <path d="M470.544189,2 L303.996998,2" id="Line-Copy"></path>
                </g>
            </g>
        </g>
    </g>
</svg>