<svg width="302" height="302" viewBox="0 0 302 302" xmlns="http://www.w3.org/2000/svg"><title>Group 2</title><g fill="none" fill-rule="evenodd"><path fill="#D5B3C8" d="M0 0h302v302H0z"/><g transform="translate(30.1 33.11)"><rect fill="#323230" width="101.336" height="41.136" rx="20.568"/><ellipse fill="#D5B3C8" cx="20.453" cy="20.568" rx="16.734" ry="16.828"/></g><g transform="translate(31.103 88.292)"><rect fill="#B590A8" width="101.096" height="40.614" rx="20.307"/><ellipse fill="#D5B3C8" cx="80.691" cy="20.307" rx="16.695" ry="16.615"/></g><rect stroke="#B590A8" stroke-width="2" x="33.106" y="198.654" width="152.512" height="70.239" rx="8"/><path d="M70.372 239.985v-2.997c1.46.937 3.184 1.349 4.251 1.349 1.086 0 1.892-.43 1.892-1.442 0-1.255-1.274-1.367-3.016-1.93-1.872-.617-3.558-1.535-3.558-3.895 0-2.528 1.91-4.101 4.757-4.101 1.33 0 2.96.337 4.139.974v2.94c-1.442-.899-3.109-1.311-4.158-1.311-1.011 0-1.741.374-1.741 1.273 0 1.2 1.254 1.293 2.884 1.836 2.041.674 3.69 1.63 3.69 4.027 0 2.64-2.005 4.232-4.926 4.232-1.349 0-2.978-.337-4.214-.955zm13.161-1.255c-.73-1.086-1.011-2.566-1.011-4.495v-7.06H85.5v6.948c0 2.847.637 4.139 2.996 4.139 2.173 0 2.978-1.199 2.978-4.12v-6.967h2.866v6.985c0 2.042-.281 3.521-1.05 4.608-.954 1.367-2.696 2.172-4.869 2.172-2.172 0-3.933-.805-4.888-2.21zm14.548 2.004v-13.56h3.952c3.914 0 5.656 1.2 5.656 3.447 0 1.386-.806 2.247-2.042 2.697v.037c1.742.506 2.585 1.667 2.585 3.278 0 2.547-1.967 4.101-6.125 4.101h-4.026zm2.978-7.94h1.573c1.236 0 2.079-.469 2.079-1.536 0-1.068-.656-1.536-2.735-1.536h-.917v3.071zm0 5.393h1.105c2.472 0 3.09-.487 3.09-1.685 0-1.124-.862-1.667-2.416-1.667h-1.78v3.352zm17.207-.58l-1.967-2.791a133.346 133.346 0 0 1-1.985-2.903l-.038.019c.02.974.038 2.247.038 3.37v5.432h-2.866v-13.56h2.866l4.027 5.732 4.026-5.731h2.828v13.56h-2.978v-5.432c0-1.124.02-2.397.038-3.371l-.038-.019c-.636.955-1.31 1.948-1.985 2.903l-1.966 2.79zm10.801 3.127v-13.56h2.978v13.56h-2.978zm10.278 0v-10.956h-4.383v-2.603h11.743v2.603h-4.382v10.956h-2.978z" fill="#B590A8"/><g transform="translate(101.336 29.096)" stroke="#EFE144" stroke-width="2"><path d="M105.937 30.769h37.39M105.937 46.822h37.39M105.937 64.213h37.39" stroke-linecap="square"/><path d="M0 168.558l89.551-89.902"/><ellipse cx="123.926" cy="46.822" rx="46.639" ry="46.822"/></g></g></svg>