<svg width="343" height="333" viewBox="0 0 343 333" xmlns="http://www.w3.org/2000/svg"><title>Group 5</title><g fill="none" fill-rule="evenodd"><g stroke="#323230" stroke-width="2" stroke-linecap="square"><path d="M1.42 234.908h58.744M1.42 259.715h112.4M1.42 282.614h112.4M1.42 307.421h112.4M1.42 330.32h112.4"/></g><g stroke="#323230" stroke-width="2" stroke-linecap="square"><path d="M214.42 235.908h58.744M214.42 260.715h112.4M214.42 283.614h112.4M214.42 308.421h112.4M214.42 331.32h112.4"/></g><path d="M251.802 18.018C247.482 7.448 237.097 0 224.972 0 208.972 0 196 12.971 196 28.972c0 12.56 7.99 23.252 19.166 27.27 6.34-17.29 19.706-31.188 36.636-38.224z" fill="#323230"/><g stroke="#323230" stroke-width="2"><path d="M102.627 136.34l.136.087c18.092 11.76 30.058 32.165 30.058 55.367H1c0-23.26 12.026-43.707 30.193-55.455 10.291 6.655 22.554 10.518 35.718 10.518 13.163 0 25.425-3.863 35.716-10.517z"/><path d="M66.91 146.857c36.402 0 65.911-29.537 65.911-65.973 0-36.435-29.51-65.972-65.91-65.972C30.509 14.912 1 44.45 1 80.884c0 36.436 29.51 65.973 65.91 65.973z"/><g stroke-linecap="square"><path d="M38.254 99.05h17.194M78.373 99.05h17.194"/></g><path stroke-linecap="square" d="M131.866 76.104h-19.664L94.06 56.98 76.79 76.104H1.9M58.313 125.822h17.195"/></g><path d="M312.778 134.427c18.167 11.748 30.193 32.196 30.193 55.455H211.149c0-23.26 12.026-43.707 30.193-55.455 10.292 6.655 22.554 10.517 35.718 10.517 13.164 0 25.426-3.862 35.718-10.517z" fill="#323230"/><path d="M323.65 35.34c10.652 11.429 17.17 26.767 17.17 43.63 0 35.33-28.613 63.97-63.91 63.97S213 114.3 213 78.97c0-1.269.037-2.528.11-3.778h69.681c2.487 0 5.756-1.44 7.433-3.274l33.425-36.577zm-1.39-1.444C310.682 22.226 294.64 15 276.91 15c-33.35 0-60.735 25.57-63.653 58.192h69.534c1.925 0 4.659-1.204 5.956-2.624l33.513-36.672zm-68.305 64.016h8.642v-2h-9.642v2h1zm40.12 0h8.641v-2h-9.641v2h1zm-26.075 27h18.194v-2H267v2h1z" fill="#323230"/></g></svg>