<?xml version="1.0" encoding="UTF-8" standalone="no"?>
<svg width="343px" height="333px" viewBox="0 0 343 333" version="1.1" xmlns="http://www.w3.org/2000/svg" xmlns:xlink="http://www.w3.org/1999/xlink">
    <!-- Generator: Sketch 3.8.3 (29802) - http://www.bohemiancoding.com/sketch -->
    <title>Group 5</title>
    <desc>Created with Sketch.</desc>
    <defs></defs>
    <g id="Layouts" stroke="none" stroke-width="1" fill="none" fill-rule="evenodd">
        <g id="Learn-Copy" transform="translate(-971.000000, -3715.000000)">
            <g id="Group-5" transform="translate(972.000000, 3715.000000)">
                <g id="Group" transform="translate(0.000000, 233.000000)" stroke="#323230" stroke-width="2" stroke-linecap="square">
                    <path d="M0.419219757,1.90824176 L59.1638595,1.90824176" id="Line-Copy-2"></path>
                    <path d="M0.419219757,26.7153846 L112.820419,26.7153846" id="Line-Copy-3"></path>
                    <path d="M0.419219757,49.6142857 L112.820419,49.6142857" id="Line-Copy-4"></path>
                    <path d="M0.419219757,74.4214286 L112.820419,74.4214286" id="Line-Copy-5"></path>
                    <path d="M0.419219757,97.3203297 L112.820419,97.3203297" id="Line-Copy-6"></path>
                </g>
                <g id="Group-Copy-2" transform="translate(213.000000, 234.000000)" stroke="#323230" stroke-width="2" stroke-linecap="square">
                    <path d="M0.419219757,1.90824176 L59.1638595,1.90824176" id="Line-Copy-2"></path>
                    <path d="M0.419219757,26.7153846 L112.820419,26.7153846" id="Line-Copy-3"></path>
                    <path d="M0.419219757,49.6142857 L112.820419,49.6142857" id="Line-Copy-4"></path>
                    <path d="M0.419219757,74.4214286 L112.820419,74.4214286" id="Line-Copy-5"></path>
                    <path d="M0.419219757,97.3203297 L112.820419,97.3203297" id="Line-Copy-6"></path>
                </g>
                <path d="M250.802105,18.0176937 C246.481862,7.44765426 236.096856,0 223.972358,0 C207.971366,0 195,12.9713664 195,28.9723577 C195,41.5312745 202.990911,52.223814 214.165687,56.2429294 C220.505736,38.9511688 233.872133,25.0540858 250.802105,18.0176937 Z" id="Combined-Shape" fill="#323230"></path>
                <g id="Group" transform="translate(0.000000, 14.912238)" stroke="#323230" stroke-width="2">
                    <path d="M101.626828,121.427928 C101.672802,121.456597 101.718031,121.485388 101.76251,121.514302 C119.854747,133.275525 131.821032,153.680038 131.821032,176.882043 L0,176.882043 C0,153.622612 12.0255916,133.174538 30.192972,121.427132 C40.4844439,128.081812 52.7468189,131.944443 65.9105158,131.944443 C79.0736875,131.944443 91.3356092,128.08212 101.626828,121.427928 Z" id="Combined-Shape"></path>
                    <path d="M65.9105158,131.944443 C102.311889,131.944443 131.821032,102.407673 131.821032,65.9722213 C131.821032,29.5367696 102.311889,0 65.9105158,0 C29.5091431,0 0,29.5367696 0,65.9722213 C0,102.407673 29.5091431,131.944443 65.9105158,131.944443 Z" id="Oval-4"></path>
                    <g id="Line-+-Line-Copy" transform="translate(36.298545, 82.226247)" stroke-linecap="square">
                        <path d="M0.955224866,1.9122383 L18.1492725,1.9122383" id="Line"></path>
                        <path d="M41.0746693,1.9122383 L58.2687169,1.9122383" id="Line-Copy"></path>
                    </g>
                    <polyline id="Line" stroke-linecap="square" points="130.865807 61.1916255 111.201607 61.1916255 93.0597975 42.0692426 75.791123 61.1916255 0.89986114 61.1916255"></polyline>
                    <path d="M57.313492,110.909821 L74.5075396,110.909821" id="Line" stroke-linecap="square"></path>
                </g>
                <path d="M311.77753,134.427132 C329.944911,146.174538 341.970502,166.622612 341.970502,189.882043 L210.149471,189.882043 C210.149471,166.622612 222.175062,146.174538 240.342443,134.427132 C250.633915,141.081812 262.896289,144.944443 276.059986,144.944443 C289.223683,144.944443 301.486058,141.081812 311.77753,134.427132 Z" id="Combined-Shape" fill="#323230"></path>
                <path d="M322.649287,35.3405175 C333.301582,46.7685574 339.82,62.1072532 339.82,78.9698325 C339.82,114.299395 311.206518,142.939665 275.91,142.939665 C240.613482,142.939665 212,114.299395 212,78.9698325 C212,77.7014699 212.036879,76.441729 212.109623,75.1916255 L281.79112,75.1916255 C284.27774,75.1916255 287.547252,73.7522992 289.223841,71.9176255 L322.649287,35.3405175 Z M321.260088,33.8959305 C309.682321,22.2259131 293.639222,15 275.91,15 C242.559284,15 215.175078,40.569586 212.257197,73.1916255 L281.79112,73.1916255 C283.716416,73.1916255 286.450013,71.9882229 287.747452,70.5684495 L321.260088,33.8959305 Z M252.955225,97.9122383 L260.597024,97.9122383 L261.597024,97.9122383 L261.597024,95.9122383 L260.597024,95.9122383 L252.955225,95.9122383 L251.955225,95.9122383 L251.955225,97.9122383 L252.955225,97.9122383 Z M293.074669,97.9122383 L300.716468,97.9122383 L301.716468,97.9122383 L301.716468,95.9122383 L300.716468,95.9122383 L293.074669,95.9122383 L292.074669,95.9122383 L292.074669,97.9122383 L293.074669,97.9122383 Z M267,124.912238 L284.194048,124.912238 L285.194048,124.912238 L285.194048,122.912238 L284.194048,122.912238 L267,122.912238 L266,122.912238 L266,124.912238 L267,124.912238 Z" id="Combined-Shape" fill="#323230"></path>
                <g id="Line-+-Line-Copy" transform="translate(251.000000, 95.000000)"></g>
            </g>
        </g>
    </g>
</svg>