<?xml version="1.0" encoding="UTF-8" standalone="no"?>
<svg width="860px" height="377px" viewBox="0 0 860 377" version="1.1" xmlns="http://www.w3.org/2000/svg" xmlns:xlink="http://www.w3.org/1999/xlink">
    <!-- Generator: Sketch 3.8.3 (29802) - http://www.bohemiancoding.com/sketch -->
    <title>Group 4</title>
    <desc>Created with Sketch.</desc>
    <defs></defs>
    <g id="Layouts" stroke="none" stroke-width="1" fill="none" fill-rule="evenodd">
        <g id="Learn-Copy" transform="translate(-62.000000, -3757.000000)">
            <g id="Group-10" transform="translate(63.000000, 3731.000000)">
                <g id="Group-4" transform="translate(0.000000, 27.000000)">
                    <text id="Acme-co." font-family="AzoSans-Regular, Azo Sans" font-size="37.6358428" font-weight="normal" fill="#323230">
                        <tspan x="54" y="134">Acme co.</tspan>
                    </text>
                    <path d="M19.5,-1.51443066e-13 L19.5,373" id="Line" stroke="#323230" stroke-width="2" stroke-linecap="square"></path>
                    <path d="M431.5,2 L431.5,375" id="Line-Copy-2" stroke="#323230" stroke-width="2" stroke-linecap="square"></path>
                    <path d="M669.5,143 L669.5,375" id="Line-Copy-10" stroke="#323230" stroke-width="2" stroke-linecap="square"></path>
                    <path d="M229,-206.142857 L229,249" id="Line-Copy" stroke="#323230" stroke-width="2" stroke-linecap="square" transform="translate(228.000000, 21.000000) rotate(-90.000000) translate(-228.000000, -21.000000) "></path>
                    <g id="Group-3" transform="translate(54.000000, 188.000000)" stroke="#323230" stroke-width="2" stroke-linecap="square">
                        <path d="M1.50303245,1.55172414 L122.419708,1.55172414" id="Line"></path>
                        <path d="M2.17177876,23.2758621 L231.918495,23.2758621" id="Line-Copy-3"></path>
                        <path d="M2.17177876,45 L231.918495,45" id="Line-Copy-4"></path>
                        <path d="M2.17177876,66.7241379 L231.918495,66.7241379" id="Line-Copy-5"></path>
                        <path d="M2.17177876,88.4482759 L231.918495,88.4482759" id="Line-Copy-6"></path>
                    </g>
                    <path d="M753.666667,60 L753.666667,270" id="Line-Copy-11" stroke="#323230" stroke-width="2" stroke-linecap="square" transform="translate(753.000000, 165.000000) rotate(-90.000000) translate(-753.000000, -165.000000) "></path>
                    <path d="M333,145 L518.62614,145 C524.151272,145 528.630276,149.468442 528.630276,154.998786 L528.630276,227.001214 C528.630276,232.523391 533.114919,237 538.623874,237 L741,237" id="Path-15" stroke="#323230" stroke-width="2"></path>
                    <ellipse id="Oval-2" fill="#323230" cx="326" cy="144" rx="12" ry="12"></ellipse>
                    <path d="M739,247 C745.627417,247 751,241.627417 751,235 C751,228.372583 745.627417,223 739,223 C732.372583,223 727,228.372583 727,235 C727,241.627417 732.372583,247 739,247 Z" id="Oval-2-Copy" fill="#323230"></path>
                </g>
            </g>
        </g>
    </g>
</svg>