<svg width="860" height="377" viewBox="0 0 860 377" xmlns="http://www.w3.org/2000/svg"><title>Group 4</title><g transform="translate(1 1)" fill="none" fill-rule="evenodd"><text font-family="AzoSans-Regular, Azo Sans" font-size="37.636" fill="#323230"><tspan x="54" y="134">Acme co.</tspan></text><path d="M19.5 0v373M431.5 2v373M669.5 143v232M.857 20H456" stroke="#323230" stroke-width="2" stroke-linecap="square"/><g stroke="#323230" stroke-width="2" stroke-linecap="square"><path d="M55.503 189.552H176.42M56.172 211.276h229.746M56.172 233h229.746M56.172 254.724h229.746M56.172 276.448h229.746"/></g><path d="M648 164.333h210" stroke="#323230" stroke-width="2" stroke-linecap="square"/><path d="M333 145h185.626c5.525 0 10.004 4.468 10.004 9.999V227c0 5.522 4.485 9.999 9.994 9.999H741" stroke="#323230" stroke-width="2"/><ellipse fill="#323230" cx="326" cy="144" rx="12" ry="12"/><path d="M739 247c6.627 0 12-5.373 12-12s-5.373-12-12-12-12 5.373-12 12 5.373 12 12 12z" fill="#323230"/></g></svg>