<?xml version="1.0" encoding="UTF-8" standalone="no"?><svg version="1.1" viewBox="0 0 96 96" xmlns="http://www.w3.org/2000/svg" xmlns:xlink="http://www.w3.org/1999/xlink"><!--Generated by IJSVG (https://github.com/curthard89/IJSVG)--><g fill="#000000"><path d="M38.047,32.39l25.171,-25.172c1.562,-1.562 1.562,-4.095 0,-5.656c-1.562,-1.562 -4.094,-1.562 -5.656,0l-25.172,25.171l-25.171,-25.171c-1.562,-1.562 -4.095,-1.562 -5.657,1.77636e-15c-1.562,1.562 -1.562,4.095 0,5.656l25.172,25.172l-25.172,25.172c-1.562,1.562 -1.562,4.095 1.77636e-15,5.656c0.781,0.781 1.805,1.172 2.828,1.172c1.023,0 2.048,-0.391 2.829,-1.172l25.171,-25.171l25.172,25.171c0.781,0.781 1.805,1.172 2.828,1.172c1.023,0 2.048,-0.391 2.828,-1.172c1.562,-1.562 1.562,-4.095 0,-5.656l-25.171,-25.172Z" transform="translate(15.61, 15.61)"></path></g></svg>