<?xml version="1.0" encoding="UTF-8" standalone="no"?>
<svg width="276px" height="241px" viewBox="0 0 276 241" version="1.1" xmlns="http://www.w3.org/2000/svg" xmlns:xlink="http://www.w3.org/1999/xlink">
    <!-- Generator: Sketch 3.8.3 (29802) - http://www.bohemiancoding.com/sketch -->
    <title>Group 16</title>
    <desc>Created with Sketch.</desc>
    <defs>
        <path d="M73.0971282,73.5001055 C47.4401238,73.5450735 21.1332339,73.586313 0.500699743,73.5028789 C0.500699743,32.9543911 33.4379293,0.0833470769 74.0680611,0.0833470769 C114.698193,0.0833470769 147.635422,32.9543911 147.635422,73.5028789 C147.389645,73.5014293 147.142134,73.5000092 146.892913,73.4986182 L109.995761,36.6014723 L73.0971282,73.5001055 Z" id="path-1"></path>
    </defs>
    <g id="Layouts" stroke="none" stroke-width="1" fill="none" fill-rule="evenodd">
        <g id="iPhone-6-Copy" transform="translate(-88.000000, -429.000000)">
            <g id="Group-16" transform="translate(88.000000, 429.000000)">
                <g id="Oval-18-+-Group-+-Triangle-2" fill="#EFE144">
                    <path d="M79.1625826,100.850833 C71.6023629,104.888975 62.9604122,107.179279 53.7813793,107.179279 C24.0787437,107.179279 0,83.1970707 0,53.6135178 C0,24.0299649 24.0787437,0.0477568788 53.7813793,0.0477568788 C83.4840149,0.0477568788 107.562759,24.0299649 107.562759,53.6135178 C107.562759,68.1788097 101.726002,81.3863196 92.2549964,91.0423716 L97.2993281,110.664354 L79.1625826,100.850833 Z" id="Combined-Shape"></path>
                </g>
                <g id="Group-7" transform="translate(22.000000, 34.000000)" stroke-linecap="square" stroke-width="4" stroke="#323230">
                    <g id="Group-8">
                        <g id="Group-9">
                            <path d="M22.9565217,0 L63.6855857,40.7290639" id="Line" transform="translate(43.321054, 20.364532) scale(-1, 1) translate(-43.321054, -20.364532) "></path>
                            <path d="M40.7290639,1.29034561e-11 L-6.03606054e-12,40.7290639" id="Line"></path>
                        </g>
                    </g>
                </g>
                <path d="M239,240.800417 C239,219.371538 221.762963,202 200.5,202 C179.237037,202 162,219.371538 162,240.800417 C187.829114,240.58746 212.576938,241.341443 239,240.800417 Z" id="Oval-17" fill="#B690A8"></path>
                <path d="M209.808989,200.470831 C209.934115,199.880959 210,199.268689 210,198.640777 C210,193.868608 206.19442,190 201.5,190 C197.030575,190 193.366831,193.506663 193.025904,197.961165 L193,197.961165 L193,210 L209.808989,210 L209.808989,200.470831 Z" id="Combined-Shape" fill="#E0DED0" transform="translate(201.500000, 200.000000) rotate(-180.000000) translate(-201.500000, -200.000000) "></path>
                <g id="Group-14" transform="translate(128.000000, 44.000000)">
                    <ellipse id="Oval-12" fill="#FFFFFF" cx="74" cy="80.7211896" rx="73.4263566" ry="73.2788104"></ellipse>
                    <path d="M27.5426357,116.933086 C29.60193,116.933086 31.2713178,115.267052 31.2713178,113.211896 C31.2713178,111.15674 29.60193,109.490706 27.5426357,109.490706 C25.4833414,109.490706 23.8139535,111.15674 23.8139535,113.211896 C23.8139535,115.267052 25.4833414,116.933086 27.5426357,116.933086 Z" id="Oval-15" fill="#323230"></path>
                    <path d="M44.8992248,132.245353 C46.9585191,132.245353 48.627907,130.57932 48.627907,128.524164 C48.627907,126.469007 46.9585191,124.802974 44.8992248,124.802974 C42.8399305,124.802974 41.1705426,126.469007 41.1705426,128.524164 C41.1705426,130.57932 42.8399305,132.245353 44.8992248,132.245353 Z" id="Oval-15" fill="#323230"></path>
                    <path d="M27.8636007,137.990772 C28.0240451,137.24784 28.1085271,136.476699 28.1085271,135.685856 C28.1085271,129.675406 23.228778,124.802974 17.2093023,124.802974 C11.4783295,124.802974 6.78045107,129.219544 6.34329379,134.829899 L6.31007752,134.829899 L6.31007752,149.992565 L27.8636007,149.992565 L27.8636007,137.990772 Z" id="Combined-Shape" fill="#FFFFFF" transform="translate(17.209302, 137.397770) rotate(-135.000000) translate(-17.209302, -137.397770) "></path>
                    <g id="Rectangle-112">
                        <mask id="mask-2" fill="white">
                            <use xlink:href="#path-1"></use>
                        </mask>
                        <use id="Combined-Shape" fill="#323230" xlink:href="#path-1"></use>
                    </g>
                </g>
            </g>
        </g>
    </g>
</svg>