<svg width="262" height="279" viewBox="0 0 262 279" xmlns="http://www.w3.org/2000/svg"><title>Group Copy</title><g fill="none" fill-rule="evenodd"><path d="M211.088 278.055c0-20.465-16.585-37.055-37.044-37.055C153.585 241 137 257.59 137 278.055c24.852-.203 48.664.517 74.088 0z" fill="#FBEF4E"/><path d="M181.974 242.039c-.34 4.454-4.005 7.961-8.474 7.961-4.694 0-8.5-3.869-8.5-8.64 0-.629.066-1.241.191-1.83V230H182v12.039h-.026z" fill="#DFDED0"/><ellipse fill="#F3F1E2" cx="173.336" cy="162.358" rx="70.336" ry="70.358"/><path d="M243.905 162.1c0-38.858-31.49-70.358-70.336-70.358-38.846 0-70.336 31.5-70.336 70.358 41.683.169 107.59-.196 140.672 0z" fill="#29292A"/><path d="M131.133 204.315a3.517 3.517 0 1 0-.001-7.035 3.517 3.517 0 0 0 0 7.035zM148.951 216.98a3.517 3.517 0 1 0 0-7.035 3.517 3.517 0 0 0 0 7.035z" fill="#323230"/><ellipse fill="#29292A" cx="241.402" cy="122.699" rx="39.388" ry="39.401"/><path d="M88.058 87.316l4.863 18.795-17.334-9.415c-7.22 3.875-15.474 6.073-24.241 6.073C22.988 102.769 0 79.774 0 51.407 0 23.041 22.988.046 51.346.046c28.357 0 51.345 22.995 51.345 51.361 0 13.976-5.58 26.648-14.633 35.909z" fill="#FBEF4E"/><path d="M42 63.98L62.973 43M63.08 63.98L42 43" stroke="#29292A" stroke-width="4" stroke-linecap="square"/><ellipse fill="#FBEF4E" cx="52.378" cy="53.381" rx="9.378" ry="9.381"/></g></svg>