<?xml version="1.0" encoding="UTF-8" standalone="no"?>
<svg width="429px" height="552px" viewBox="0 0 429 552" version="1.1" xmlns="http://www.w3.org/2000/svg" xmlns:xlink="http://www.w3.org/1999/xlink">
    <!-- Generator: Sketch 3.8.3 (29802) - http://www.bohemiancoding.com/sketch -->
    <title>Group 16</title>
    <desc>Created with Sketch.</desc>
    <defs>
        <path d="M127.428951,128.386543 C82.7016415,128.465093 36.8411382,128.537134 0.872841444,128.391392 C0.872841444,57.5631897 58.2904444,0.145586777 129.118647,0.145586777 C199.94685,0.145586777 257.364453,57.5631897 257.364453,128.391392 C256.9788,128.389113 256.5907,128.386876 256.200182,128.38468 L191.815494,64 L127.428951,128.386543 Z" id="path-1"></path>
    </defs>
    <g id="Layouts" stroke="none" stroke-width="1" fill="none" fill-rule="evenodd">
        <g id="Learn-Copy" transform="translate(-828.000000, -2299.000000)">
            <g id="Group-16" transform="translate(828.000000, 2299.000000)">
                <g id="Oval-18-+-Group-+-Triangle-2" fill="#EFE144">
                    <path d="M137.817908,176.253032 C124.65363,183.316149 109.604382,187.322343 93.619438,187.322343 C41.9148501,187.322343 0,145.407493 0,93.702905 C0,41.9983171 41.9148501,0.0834669774 93.619438,0.0834669774 C145.324026,0.0834669774 187.238876,41.9983171 187.238876,93.702905 C187.238876,119.175875 177.065411,142.272704 160.559939,159.151935 L169.421442,193.413375 L137.817908,176.253032 Z" id="Combined-Shape"></path>
                </g>
                <path d="M365.951494,551.134402 C365.951494,513.831548 335.711556,483.591611 298.408703,483.591611 C261.10585,483.591611 230.865912,513.831548 230.865912,551.134402 L365.951494,551.134402 Z" id="Oval-17" fill="#B690A8"></path>
                <path d="M314.444457,482.043021 C314.663641,481.026571 314.779053,479.971527 314.779053,478.889527 C314.779053,470.666268 308.112785,464 299.889527,464 C292.060394,464 285.642581,470.042576 285.045377,477.71844 L285,477.71844 L285,498.463398 L314.444457,498.463398 L314.444457,482.043021 Z" id="Combined-Shape" fill="#E0DED0" transform="translate(299.889527, 481.231699) rotate(-180.000000) translate(-299.889527, -481.231699) "></path>
                <g id="Group-14" transform="translate(171.000000, 209.000000)">
                    <circle id="Oval-12" fill="#F3F1E2" cx="129" cy="141" r="128"></circle>
                    <path d="M48.5,206 C52.0898509,206 55,203.089851 55,199.5 C55,195.910149 52.0898509,193 48.5,193 C44.9101491,193 42,195.910149 42,199.5 C42,203.089851 44.9101491,206 48.5,206 Z" id="Oval-15" fill="#323230"></path>
                    <path d="M75.5,231 C79.0898509,231 82,228.089851 82,224.5 C82,220.910149 79.0898509,218 75.5,218 C71.9101491,218 69,220.910149 69,224.5 C69,228.089851 71.9101491,231 75.5,231 Z" id="Oval-15" fill="#323230"></path>
                    <path d="M48.5730337,241.035828 C48.8527273,239.73811 49,238.391117 49,237.009709 C49,226.510937 40.4934102,218 30,218 C20.0095203,218 11.8199755,225.714659 11.057904,235.514563 L11,235.514563 L11,262 L48.5730337,262 L48.5730337,241.035828 Z" id="Combined-Shape" fill="#F3F1E2" transform="translate(30.000000, 240.000000) rotate(-135.000000) translate(-30.000000, -240.000000) "></path>
                    <g id="Rectangle-112">
                        <mask id="mask-2" fill="white">
                            <use xlink:href="#path-1"></use>
                        </mask>
                        <use id="Combined-Shape" fill="#323230" xlink:href="#path-1"></use>
                    </g>
                </g>
                <g id="Group-7" transform="translate(48.000000, 64.000000)" stroke-linecap="square" stroke-width="4" stroke="#323230">
                    <g id="Group-8">
                        <g id="Group-9">
                            <path d="M33,0 L91.5480294,58.5480294" id="Line" transform="translate(62.274015, 29.274015) scale(-1, 1) translate(-62.274015, -29.274015) "></path>
                            <path d="M58.5480294,1.85593763e-11 L-8.61888338e-12,58.5480294" id="Line"></path>
                        </g>
                    </g>
                </g>
            </g>
        </g>
    </g>
</svg>