<svg width="429" height="552" viewBox="0 0 429 552" xmlns="http://www.w3.org/2000/svg" xmlns:xlink="http://www.w3.org/1999/xlink"><title>Group 16</title><defs><path d="M127.429 128.387c-44.727.078-90.588.15-126.556.004C.873 57.563 58.29.146 129.119.146c70.828 0 128.245 57.417 128.245 128.245l-1.164-.006L191.815 64l-64.386 64.387z" id="a"/></defs><g fill="none" fill-rule="evenodd"><path d="M137.818 176.253c-13.164 7.063-28.214 11.07-44.199 11.07C41.915 187.322 0 145.406 0 93.702 0 41.998 41.915.083 93.62.083c51.704 0 93.619 41.915 93.619 93.62 0 25.473-10.174 48.57-26.68 65.449l8.862 34.261-31.603-17.16z" fill="#EFE144"/><path d="M365.951 551.134c0-37.302-30.24-67.542-67.542-67.542-37.303 0-67.543 30.24-67.543 67.542H365.95z" fill="#B690A8"/><path d="M285.335 480.42a14.947 14.947 0 0 0-.335 3.154c0 8.223 6.666 14.89 14.89 14.89 7.829 0 14.246-6.043 14.844-13.719h.045V464h-29.444v16.42z" fill="#E0DED0"/><g transform="translate(171 209)"><circle fill="#F3F1E2" cx="129" cy="141" r="128"/><path d="M48.5 206a6.5 6.5 0 1 0 0-13 6.5 6.5 0 0 0 0 13zM75.5 231a6.5 6.5 0 1 0 0-13 6.5 6.5 0 0 0 0 13z" fill="#323230"/><path d="M17.6 226.134a19.093 19.093 0 0 0-3.15 2.545c-7.423 7.424-7.426 19.457-.006 26.877 7.064 7.065 18.31 7.4 25.778 1.01l.041.04 18.728-18.727-26.568-26.568L17.6 226.134z" fill="#F3F1E2"/><use fill="#323230" xlink:href="#a"/></g><g stroke-linecap="square" stroke-width="4" stroke="#323230"><path d="M139.548 64L81 122.548M106.548 64L48 122.548"/></g></g></svg>