<svg width="276" height="241" viewBox="0 0 276 241" xmlns="http://www.w3.org/2000/svg" xmlns:xlink="http://www.w3.org/1999/xlink"><title>Group 16</title><defs><path d="M73.097 73.5c-25.657.045-51.964.086-72.596.003C.5 32.954 33.438.083 74.068.083c40.63 0 73.567 32.871 73.567 73.42l-.742-.004L109.996 36.6l-36.899 36.9z" id="a"/></defs><g fill="none" fill-rule="evenodd"><path d="M79.163 100.85c-7.56 4.039-16.203 6.33-25.382 6.33C24.08 107.18 0 83.196 0 53.613 0 24.03 24.079.048 53.781.048c29.703 0 53.782 23.982 53.782 53.566 0 14.565-5.837 27.772-15.308 37.428l5.044 19.622-18.136-9.813z" fill="#EFE144"/><g stroke-linecap="square" stroke-width="4" stroke="#323230"><path d="M85.686 34l-40.73 40.73M62.73 34L22 74.73"/></g><path d="M239 240.8c0-21.428-17.237-38.8-38.5-38.8S162 219.372 162 240.8c25.83-.213 50.577.541 77 0z" fill="#B690A8"/><path d="M193.191 199.53a8.812 8.812 0 0 0-.191 1.83c0 4.771 3.806 8.64 8.5 8.64 4.47 0 8.133-3.507 8.474-7.961H210V190h-16.809v9.53z" fill="#E0DED0"/><g transform="translate(128 44)"><ellipse fill="#FFF" cx="74" cy="80.721" rx="73.426" ry="73.279"/><path d="M27.543 116.933a3.725 3.725 0 0 0 3.728-3.721 3.725 3.725 0 0 0-3.728-3.721 3.725 3.725 0 0 0-3.729 3.72 3.725 3.725 0 0 0 3.729 3.722zM44.9 132.245a3.725 3.725 0 0 0 3.728-3.72 3.725 3.725 0 0 0-3.729-3.722 3.725 3.725 0 0 0-3.728 3.721 3.725 3.725 0 0 0 3.728 3.721z" fill="#323230"/><path d="M10.095 129.445a10.91 10.91 0 0 0-1.803 1.456c-4.25 4.25-4.245 11.146.011 15.403 4.053 4.052 10.498 4.251 14.774.593l.023.023L33.822 136.2l-15.24-15.24-8.487 8.486z" fill="#FFF"/><use fill="#323230" xlink:href="#a"/></g></g></svg>