<svg width="1397" height="461" viewBox="0 0 1397 461" xmlns="http://www.w3.org/2000/svg"><title>process-illustrations</title><g fill="none" fill-rule="evenodd"><g stroke="#323230" stroke-width="2" stroke-linecap="square"><path d="M973.42 276.908h58.744M973.42 301.715h112.4M973.42 324.614h112.4M973.42 349.421h112.4M973.42 372.32h112.4"/></g><g stroke="#323230" stroke-width="2" stroke-linecap="square"><path d="M1186.42 277.908h58.744M1186.42 302.715h112.4M1186.42 325.614h112.4M1186.42 350.421h112.4M1186.42 373.32h112.4"/></g><path d="M1187.166 98.243C1175.99 94.223 1168 83.53 1168 70.973 1168 54.97 1180.971 42 1196.972 42c12.125 0 22.51 7.448 26.83 18.018-16.93 7.036-30.296 20.933-36.636 38.225z" fill="#323230"/><g stroke="#323230" stroke-width="2"><path d="M1003.193 178.34C985.026 190.086 973 210.534 973 233.793h131.821c0-23.202-11.966-43.606-30.058-55.367a8.542 8.542 0 0 0-.136-.087c-10.291 6.654-22.553 10.517-35.716 10.517-13.164 0-25.427-3.863-35.718-10.518z"/><path d="M1038.91 188.857c36.402 0 65.911-29.537 65.911-65.973 0-36.435-29.51-65.972-65.91-65.972-36.402 0-65.911 29.537-65.911 65.972 0 36.436 29.51 65.973 65.91 65.973z"/><g stroke-linecap="square"><path d="M1010.254 141.05h17.194M1050.373 141.05h17.194"/></g><path stroke-linecap="square" d="M1103.866 118.104h-19.664L1066.06 98.98l-17.269 19.123H973.9M1030.313 167.822h17.195"/></g><path d="M1213.342 176.427c-18.167 11.748-30.193 32.196-30.193 55.455h131.822c0-23.26-12.026-43.707-30.193-55.455-10.292 6.655-22.554 10.517-35.718 10.517-13.164 0-25.426-3.862-35.718-10.517z" fill="#323230"/><path d="M1185.11 117.192h69.681c2.487 0 5.756-1.44 7.433-3.274l33.425-36.577c10.653 11.428 17.171 26.766 17.171 43.629 0 35.33-28.613 63.97-63.91 63.97S1185 156.3 1185 120.97c0-1.269.037-2.528.11-3.778zm.147-2C1188.175 82.57 1215.56 57 1248.91 57c17.73 0 33.772 7.226 45.35 18.896l-33.513 36.672c-1.297 1.42-4.03 2.624-5.956 2.624h-69.534zm40.698 24.72h8.642v-2h-9.642v2h1zm40.12 0h8.641v-2h-9.641v2h1zm-26.075 27h18.194v-2H1239v2h1z" fill="#323230"/><g transform="translate(64 85)"><text font-family="AzoSans-Regular, Azo Sans" font-size="37.636" fill="#323230"><tspan x="54" y="134">Acme co.</tspan></text><path d="M19.5 0v373M431.5 2v373M669.5 143v232M.857 20H456" stroke="#323230" stroke-width="2" stroke-linecap="square"/><g stroke="#323230" stroke-width="2" stroke-linecap="square"><path d="M55.503 189.552H176.42M56.172 211.276h229.746M56.172 233h229.746M56.172 254.724h229.746M56.172 276.448h229.746"/></g><path d="M648 164.333h210" stroke="#323230" stroke-width="2" stroke-linecap="square"/><path d="M333 145h185.626c5.525 0 10.004 4.468 10.004 9.999V227c0 5.522 4.485 9.999 9.994 9.999H741" stroke="#323230" stroke-width="2"/><circle fill="#323230" cx="326" cy="144" r="12"/><path d="M739 247c6.627 0 12-5.373 12-12s-5.373-12-12-12-12 5.373-12 12 5.373 12 12 12z" fill="#323230"/></g></g></svg>