<?xml version="1.0" encoding="UTF-8" standalone="no"?>
<svg width="1397px" height="461px" viewBox="0 0 1397 461" version="1.1" xmlns="http://www.w3.org/2000/svg" xmlns:xlink="http://www.w3.org/1999/xlink">
    <!-- Generator: Sketch 47.1 (45422) - http://www.bohemiancoding.com/sketch -->
    <title>process-illustrations</title>
    <desc>Created with Sketch.</desc>
    <defs></defs>
    <g id="Layouts-Copy" stroke="none" stroke-width="1" fill="none" fill-rule="evenodd">
        <g id="process-illustrations">
            <g id="Group-21" transform="translate(64.000000, 42.000000)">
                <g id="Group-5" transform="translate(909.000000, 0.000000)">
                    <g id="Group" transform="translate(0.000000, 233.000000)" stroke="#323230" stroke-width="2" stroke-linecap="square">
                        <path d="M0.419219757,1.90824176 L59.1638595,1.90824176" id="Line-Copy-2"></path>
                        <path d="M0.419219757,26.7153846 L112.820419,26.7153846" id="Line-Copy-3"></path>
                        <path d="M0.419219757,49.6142857 L112.820419,49.6142857" id="Line-Copy-4"></path>
                        <path d="M0.419219757,74.4214286 L112.820419,74.4214286" id="Line-Copy-5"></path>
                        <path d="M0.419219757,97.3203297 L112.820419,97.3203297" id="Line-Copy-6"></path>
                    </g>
                    <g id="Group-Copy-2" transform="translate(213.000000, 234.000000)" stroke="#323230" stroke-width="2" stroke-linecap="square">
                        <path d="M0.419219757,1.90824176 L59.1638595,1.90824176" id="Line-Copy-2"></path>
                        <path d="M0.419219757,26.7153846 L112.820419,26.7153846" id="Line-Copy-3"></path>
                        <path d="M0.419219757,49.6142857 L112.820419,49.6142857" id="Line-Copy-4"></path>
                        <path d="M0.419219757,74.4214286 L112.820419,74.4214286" id="Line-Copy-5"></path>
                        <path d="M0.419219757,97.3203297 L112.820419,97.3203297" id="Line-Copy-6"></path>
                    </g>
                    <path d="M214.165687,56.2429294 C202.990911,52.223814 195,41.5312745 195,28.9723577 C195,12.9713664 207.971366,0 223.972358,0 C236.096856,0 246.481862,7.44765426 250.802105,18.0176937 C233.872133,25.0540858 220.505736,38.9511688 214.165687,56.2429294 Z" id="Combined-Shape" fill="#323230"></path>
                    <g id="Group" transform="translate(0.000000, 14.912238)" stroke="#323230" stroke-width="2">
                        <path d="M30.192972,121.427132 C12.0255916,133.174538 0,153.622612 0,176.882043 L131.821032,176.882043 C131.821032,153.680038 119.854747,133.275525 101.76251,121.514302 C101.718031,121.485388 101.672802,121.456597 101.626828,121.427928 C91.3356092,128.08212 79.0736875,131.944443 65.9105158,131.944443 C52.7468189,131.944443 40.4844439,128.081812 30.192972,121.427132 Z" id="Combined-Shape"></path>
                        <path d="M65.9105158,131.944443 C102.311889,131.944443 131.821032,102.407673 131.821032,65.9722213 C131.821032,29.5367696 102.311889,0 65.9105158,0 C29.5091431,0 0,29.5367696 0,65.9722213 C0,102.407673 29.5091431,131.944443 65.9105158,131.944443 Z" id="Oval-4"></path>
                        <g id="Line-+-Line-Copy" transform="translate(36.298545, 82.226247)" stroke-linecap="square">
                            <path d="M0.955224866,1.9122383 L18.1492725,1.9122383" id="Line"></path>
                            <path d="M41.0746693,1.9122383 L58.2687169,1.9122383" id="Line-Copy"></path>
                        </g>
                        <polyline id="Line" stroke-linecap="square" points="130.865807 61.1916255 111.201607 61.1916255 93.0597975 42.0692426 75.791123 61.1916255 0.89986114 61.1916255"></polyline>
                        <path d="M57.313492,110.909821 L74.5075396,110.909821" id="Line" stroke-linecap="square"></path>
                    </g>
                    <path d="M240.342443,134.427132 C222.175062,146.174538 210.149471,166.622612 210.149471,189.882043 L341.970502,189.882043 C341.970502,166.622612 329.944911,146.174538 311.77753,134.427132 C301.486058,141.081812 289.223683,144.944443 276.059986,144.944443 C262.896289,144.944443 250.633915,141.081812 240.342443,134.427132 Z" id="Combined-Shape" fill="#323230"></path>
                    <path d="M212.109623,75.1916255 L281.79112,75.1916255 C284.27774,75.1916255 287.547252,73.7522992 289.223841,71.9176255 L322.649287,35.3405175 C333.301582,46.7685574 339.82,62.1072532 339.82,78.9698325 C339.82,114.299395 311.206518,142.939665 275.91,142.939665 C240.613482,142.939665 212,114.299395 212,78.9698325 C212,77.7014699 212.036879,76.441729 212.109623,75.1916255 Z M212.257197,73.1916255 C215.175078,40.569586 242.559284,15 275.91,15 C293.639222,15 309.682321,22.2259131 321.260088,33.8959305 L287.747452,70.5684495 C286.450013,71.9882229 283.716416,73.1916255 281.79112,73.1916255 L212.257197,73.1916255 Z M252.955225,97.9122383 L260.597024,97.9122383 L261.597024,97.9122383 L261.597024,95.9122383 L260.597024,95.9122383 L252.955225,95.9122383 L251.955225,95.9122383 L251.955225,97.9122383 L252.955225,97.9122383 Z M293.074669,97.9122383 L300.716468,97.9122383 L301.716468,97.9122383 L301.716468,95.9122383 L300.716468,95.9122383 L293.074669,95.9122383 L292.074669,95.9122383 L292.074669,97.9122383 L293.074669,97.9122383 Z M267,124.912238 L284.194048,124.912238 L285.194048,124.912238 L285.194048,122.912238 L284.194048,122.912238 L267,122.912238 L266,122.912238 L266,124.912238 L267,124.912238 Z" id="Combined-Shape" fill="#323230"></path>
                    <g id="Line-+-Line-Copy" transform="translate(251.000000, 95.000000)"></g>
                </g>
                <g id="Group-4" transform="translate(0.000000, 43.000000)">
                    <text id="Acme-co." font-family="AzoSans-Regular, Azo Sans" font-size="37.6358428" font-weight="normal" fill="#323230">
                        <tspan x="54" y="134">Acme co.</tspan>
                    </text>
                    <path d="M19.5,-1.51443066e-13 L19.5,373" id="Line" stroke="#323230" stroke-width="2" stroke-linecap="square"></path>
                    <path d="M431.5,2 L431.5,375" id="Line-Copy-2" stroke="#323230" stroke-width="2" stroke-linecap="square"></path>
                    <path d="M669.5,143 L669.5,375" id="Line-Copy-10" stroke="#323230" stroke-width="2" stroke-linecap="square"></path>
                    <path d="M229,-206.142857 L229,249" id="Line-Copy" stroke="#323230" stroke-width="2" stroke-linecap="square" transform="translate(228.000000, 21.000000) rotate(-90.000000) translate(-228.000000, -21.000000) "></path>
                    <g id="Group-3" transform="translate(54.000000, 188.000000)" stroke="#323230" stroke-width="2" stroke-linecap="square">
                        <path d="M1.50303245,1.55172414 L122.419708,1.55172414" id="Line"></path>
                        <path d="M2.17177876,23.2758621 L231.918495,23.2758621" id="Line-Copy-3"></path>
                        <path d="M2.17177876,45 L231.918495,45" id="Line-Copy-4"></path>
                        <path d="M2.17177876,66.7241379 L231.918495,66.7241379" id="Line-Copy-5"></path>
                        <path d="M2.17177876,88.4482759 L231.918495,88.4482759" id="Line-Copy-6"></path>
                    </g>
                    <path d="M753.666667,60 L753.666667,270" id="Line-Copy-11" stroke="#323230" stroke-width="2" stroke-linecap="square" transform="translate(753.000000, 165.000000) rotate(-90.000000) translate(-753.000000, -165.000000) "></path>
                    <path d="M333,145 L518.62614,145 C524.151272,145 528.630276,149.468442 528.630276,154.998786 L528.630276,227.001214 C528.630276,232.523391 533.114919,237 538.623874,237 L741,237" id="Path-15" stroke="#323230" stroke-width="2"></path>
                    <circle id="Oval-2" fill="#323230" cx="326" cy="144" r="12"></circle>
                    <path d="M739,247 C745.627417,247 751,241.627417 751,235 C751,228.372583 745.627417,223 739,223 C732.372583,223 727,228.372583 727,235 C727,241.627417 732.372583,247 739,247 Z" id="Oval-2-Copy" fill="#323230"></path>
                </g>
            </g>
        </g>
    </g>
</svg>