<svg width="1397" height="461" viewBox="0 0 1397 461" xmlns="http://www.w3.org/2000/svg"><title>process-illustrations</title><g fill="none" fill-rule="evenodd"><g stroke="#323230" stroke-linecap="square" stroke-width="2"><path d="M973.42 276.908h58.744M973.42 301.715h112.4M973.42 324.614h112.4M973.42 349.421h112.4M973.42 372.32h112.4"/></g><g stroke="#323230" stroke-linecap="square" stroke-width="2"><path d="M1186.42 277.908h58.744M1186.42 302.715h112.4M1186.42 325.614h112.4M1186.42 350.421h112.4M1186.42 373.32h112.4"/></g><path d="M1187.166 98.243C1175.99 94.223 1168 83.53 1168 70.973 1168 54.97 1180.971 42 1196.972 42c12.125 0 22.51 7.448 26.83 18.018-16.93 7.036-30.296 20.933-36.636 38.225z" fill="#323230"/><g stroke="#323230" stroke-width="2"><path d="M1003.193 178.34c10.291 6.654 22.554 10.517 35.718 10.517 13.163 0 25.425-3.863 35.716-10.517l.136.087c18.092 11.76 30.058 32.165 30.058 55.367H973c0-23.26 12.026-43.707 30.193-55.455z"/><path d="M1038.91 188.857c36.402 0 65.911-29.537 65.911-65.973 0-36.435-29.51-65.972-65.91-65.972-36.402 0-65.911 29.537-65.911 65.972 0 36.436 29.51 65.973 65.91 65.973z"/><g stroke-linecap="square"><path d="M1010.254 141.05h17.194M1050.373 141.05h17.194"/></g><path stroke-linecap="square" d="M1103.866 118.104h-19.664L1066.06 98.98l-17.269 19.123H973.9M1030.313 167.822h17.195"/></g><path d="M1213.342 176.427c10.292 6.655 22.554 10.517 35.718 10.517 13.164 0 25.426-3.862 35.718-10.517 18.167 11.748 30.193 32.196 30.193 55.455h-131.822c0-23.26 12.026-43.707 30.193-55.455z" fill="#323230"/><path d="M1185.11 117.192h69.681c2.487 0 5.756-1.44 7.433-3.274l33.425-36.577c10.653 11.428 17.171 26.766 17.171 43.629 0 35.33-28.613 63.97-63.91 63.97S1185 156.3 1185 120.97c0-1.269.037-2.528.11-3.778zm.147-2C1188.175 82.57 1215.56 57 1248.91 57c17.73 0 33.772 7.226 45.35 18.896l-33.513 36.672c-1.297 1.42-4.03 2.624-5.956 2.624h-69.534zm40.698 24.72h8.642v-2h-9.642v2h1zm40.12 0h8.641v-2h-9.641v2h1zm-26.075 27h18.194v-2H1239v2h1z" fill="#323230"/><g transform="translate(64 85)"><path d="M54.188 134l11.216-27.248h3.425L80.082 134h-3.84l-3.048-7.602H60.925L57.839 134h-3.65zm10.2-16.259l-2.221 5.533h9.785l-2.22-5.646a357.145 357.145 0 0 1-2.597-6.736h-.075a280.839 280.839 0 0 1-2.673 6.85zm32.705 11.78v3.613c-1.58.866-3.65 1.28-5.532 1.28-5.872 0-10.05-4.065-10.05-9.56 0-5.72 4.517-9.785 10.275-9.785 1.92 0 3.689.49 5.006 1.167v3.5c-1.543-.979-3.35-1.58-5.156-1.58-4.027 0-6.7 2.973-6.7 6.698 0 3.802 2.823 6.474 6.813 6.474 2.107 0 3.952-.715 5.344-1.807zM127.465 134v-10.952c0-1.769-.263-2.898-.94-3.688-.716-.828-1.845-1.13-2.823-1.13-2.146 0-4.366 1.393-5.646 2.899.038.414.038.865.038 1.317V134h-3.387v-10.952c0-1.995-.226-2.898-.866-3.65-.753-.866-1.769-1.167-2.823-1.167-2.183 0-4.365 1.354-5.645 2.898V134h-3.387v-18.517h3.387v2.258l.075.038c1.543-1.543 3.726-2.71 6.285-2.71 2.296 0 4.554.979 5.683 3.2 2.22-2.108 4.48-3.2 7.038-3.2 1.995 0 3.726.678 4.855 1.957 1.13 1.242 1.543 2.898 1.543 5.42V134h-3.387zm25.517-8.28h-14.15c.488 3.65 3.198 5.645 6.849 5.645 2.56 0 4.704-1.016 6.398-2.295v3.613c-1.656 1.054-4.215 1.731-6.624 1.731-5.72 0-10.011-3.839-10.011-9.672 0-5.834 4.253-9.673 9.22-9.673 4.517 0 8.431 3.162 8.431 8.958 0 .564-.037 1.241-.113 1.693zm-8.393-7.602c-2.446 0-5.08 1.505-5.683 4.93h10.915c-.301-3.688-3.011-4.93-5.232-4.93zm36.733 11.403v3.613c-1.58.866-3.65 1.28-5.532 1.28-5.872 0-10.05-4.065-10.05-9.56 0-5.72 4.517-9.785 10.275-9.785 1.92 0 3.689.49 5.006 1.167v3.5c-1.543-.979-3.35-1.58-5.156-1.58-4.027 0-6.7 2.973-6.7 6.698 0 3.802 2.823 6.474 6.813 6.474 2.107 0 3.952-.715 5.344-1.807zm3.538-4.78c0-5.457 4.177-9.672 9.785-9.672 5.608 0 9.785 4.215 9.785 9.673 0 5.457-4.177 9.672-9.785 9.672-5.608 0-9.785-4.215-9.785-9.672zm3.387 0c0 3.727 2.71 6.587 6.398 6.587 3.688 0 6.398-2.86 6.398-6.586 0-3.726-2.71-6.587-6.398-6.587-3.688 0-6.398 2.86-6.398 6.587zm20.399 7.189a2.506 2.506 0 0 1 2.484-2.484 2.506 2.506 0 0 1 2.484 2.484 2.506 2.506 0 0 1-2.484 2.484 2.506 2.506 0 0 1-2.484-2.484z" fill="#323230"/><path d="M19.5 0v373M431.5 2v373M669.5 143v232M.857 20H456" stroke="#323230" stroke-width="2" stroke-linecap="square"/><g stroke="#323230" stroke-linecap="square" stroke-width="2"><path d="M55.503 189.552H176.42M56.172 211.276h229.746M56.172 233h229.746M56.172 254.724h229.746M56.172 276.448h229.746"/></g><path d="M648 164.333h210" stroke="#323230" stroke-width="2" stroke-linecap="square"/><path d="M333 145h185.626c5.525 0 10.004 4.468 10.004 9.999V227c0 5.522 4.485 9.999 9.994 9.999H741" stroke="#323230" stroke-width="2"/><circle fill="#323230" cx="326" cy="144" r="12"/><path d="M739 247c6.627 0 12-5.373 12-12s-5.373-12-12-12-12 5.373-12 12 5.373 12 12 12z" fill="#323230"/></g></g></svg>