<?xml version="1.0" encoding="UTF-8" standalone="no"?>
<svg width="298px" height="77px" viewBox="0 0 298 77" version="1.1" xmlns="http://www.w3.org/2000/svg" xmlns:xlink="http://www.w3.org/1999/xlink">
    <!-- Generator: Sketch 48.1 (47250) - http://www.bohemiancoding.com/sketch -->
    <title>Protist</title>
    <desc>Created with Sketch.</desc>
    <defs></defs>
    <g id="Learn-Copy" stroke="none" stroke-width="1" fill="none" fill-rule="evenodd" transform="translate(-100.000000, -868.000000)">
        <path d="M100.555,868.66 L126.7,868.66 C131.460024,868.66 135.379985,869.307494 138.46,870.6025 C141.540015,871.897506 143.972491,873.54249 145.7575,875.5375 C147.542509,877.53251 148.784996,879.772488 149.485,882.2575 C150.185003,884.742512 150.535,887.139988 150.535,889.45 C150.535,891.760012 150.185003,894.157488 149.485,896.6425 C148.784996,899.127512 147.542509,901.36749 145.7575,903.3625 C143.972491,905.35751 141.540015,907.002494 138.46,908.2975 C135.379985,909.592506 131.460024,910.24 126.7,910.24 L110.635,910.24 L110.635,943 L100.555,943 L100.555,868.66 Z M110.635,901.42 L123.865,901.42 C125.82501,901.42 127.76749,901.262502 129.6925,900.9475 C131.61751,900.632498 133.332492,900.055004 134.8375,899.215 C136.342508,898.374996 137.549995,897.167508 138.46,895.5925 C139.370005,894.017492 139.825,891.970013 139.825,889.45 C139.825,886.929987 139.370005,884.882508 138.46,883.3075 C137.549995,881.732492 136.342508,880.525004 134.8375,879.685 C133.332492,878.844996 131.61751,878.267502 129.6925,877.9525 C127.76749,877.637498 125.82501,877.48 123.865,877.48 L110.635,877.48 L110.635,901.42 Z M160.405,893.23 L169.855,893.23 L169.855,900.895 L170.065,900.895 C170.695003,899.564993 171.534995,898.357505 172.585,897.2725 C173.635005,896.187495 174.807494,895.260004 176.1025,894.49 C177.397506,893.719996 178.814992,893.107502 180.355,892.6525 C181.895008,892.197498 183.434992,891.97 184.975,891.97 C186.515008,891.97 187.914994,892.179998 189.175,892.6 L188.755,902.785 C187.984996,902.574999 187.215004,902.400001 186.445,902.26 C185.674996,902.119999 184.905004,902.05 184.135,902.05 C179.514977,902.05 175.980012,903.344987 173.53,905.935 C171.079988,908.525013 169.855,912.549973 169.855,918.01 L169.855,943 L160.405,943 L160.405,893.23 Z M205.03,918.115 C205.03,920.635013 205.414996,922.962489 206.185,925.0975 C206.955004,927.232511 208.039993,929.052492 209.44,930.5575 C210.840007,932.062508 212.55499,933.252496 214.585,934.1275 C216.61501,935.002504 218.889987,935.44 221.41,935.44 C223.930013,935.44 226.20499,935.002504 228.235,934.1275 C230.26501,933.252496 231.979993,932.062508 233.38,930.5575 C234.780007,929.052492 235.864996,927.232511 236.635,925.0975 C237.405004,922.962489 237.79,920.635013 237.79,918.115 C237.79,915.594987 237.405004,913.267511 236.635,911.1325 C235.864996,908.997489 234.780007,907.177508 233.38,905.6725 C231.979993,904.167492 230.26501,902.977504 228.235,902.1025 C226.20499,901.227496 223.930013,900.79 221.41,900.79 C218.889987,900.79 216.61501,901.227496 214.585,902.1025 C212.55499,902.977504 210.840007,904.167492 209.44,905.6725 C208.039993,907.177508 206.955004,908.997489 206.185,911.1325 C205.414996,913.267511 205.03,915.594987 205.03,918.115 Z M194.95,918.115 C194.95,914.474982 195.632493,911.080016 196.9975,907.93 C198.362507,904.779984 200.234988,902.015012 202.615,899.635 C204.995012,897.254988 207.794984,895.382507 211.015,894.0175 C214.235016,892.652493 217.699981,891.97 221.41,891.97 C225.120019,891.97 228.584984,892.652493 231.805,894.0175 C235.025016,895.382507 237.824988,897.254988 240.205,899.635 C242.585012,902.015012 244.457493,904.779984 245.8225,907.93 C247.187507,911.080016 247.87,914.474982 247.87,918.115 C247.87,921.755018 247.187507,925.167484 245.8225,928.3525 C244.457493,931.537516 242.585012,934.302488 240.205,936.6475 C237.824988,938.992512 235.025016,940.847493 231.805,942.2125 C228.584984,943.577507 225.120019,944.26 221.41,944.26 C217.699981,944.26 214.235016,943.577507 211.015,942.2125 C207.794984,940.847493 204.995012,938.992512 202.615,936.6475 C200.234988,934.302488 198.362507,931.537516 196.9975,928.3525 C195.632493,925.167484 194.95,921.755018 194.95,918.115 Z M286.405,901.42 L272.86,901.42 L272.86,923.995 C272.86,925.395007 272.895,926.777493 272.965,928.1425 C273.035,929.507507 273.297498,930.732495 273.7525,931.8175 C274.207502,932.902505 274.907495,933.777497 275.8525,934.4425 C276.797505,935.107503 278.179991,935.44 280,935.44 C281.120006,935.44 282.274994,935.335001 283.465,935.125 C284.655006,934.914999 285.739995,934.530003 286.72,933.97 L286.72,942.58 C285.599994,943.210003 284.147509,943.647499 282.3625,943.8925 C280.577491,944.137501 279.195005,944.26 278.215,944.26 C274.574982,944.26 271.75751,943.752505 269.7625,942.7375 C267.76749,941.722495 266.297505,940.410008 265.3525,938.8 C264.407495,937.189992 263.847501,935.38751 263.6725,933.3925 C263.497499,931.39749 263.41,929.38501 263.41,927.355 L263.41,901.42 L252.49,901.42 L252.49,893.23 L263.41,893.23 L263.41,879.265 L272.86,879.265 L272.86,893.23 L286.405,893.23 L286.405,901.42 Z M299.32,893.23 L308.77,893.23 L308.77,943 L299.32,943 L299.32,893.23 Z M297.115,875.38 C297.115,873.489991 297.797493,871.862507 299.1625,870.4975 C300.527507,869.132493 302.154991,868.45 304.045,868.45 C305.935009,868.45 307.562493,869.132493 308.9275,870.4975 C310.292507,871.862507 310.975,873.489991 310.975,875.38 C310.975,877.270009 310.292507,878.897493 308.9275,880.2625 C307.562493,881.627507 305.935009,882.31 304.045,882.31 C302.154991,882.31 300.527507,881.627507 299.1625,880.2625 C297.797493,878.897493 297.115,877.270009 297.115,875.38 Z M350.245,905.725 C349.124994,904.324993 347.742508,903.152505 346.0975,902.2075 C344.452492,901.262495 342.440012,900.79 340.06,900.79 C337.819989,900.79 335.877508,901.262495 334.2325,902.2075 C332.587492,903.152505 331.765,904.534991 331.765,906.355 C331.765,907.825007 332.237495,909.014995 333.1825,909.925 C334.127505,910.835005 335.247494,911.569997 336.5425,912.13 C337.837506,912.690003 339.219993,913.109999 340.69,913.39 C342.160007,913.670001 343.419995,913.914999 344.47,914.125 C346.50001,914.615002 348.407491,915.209996 350.1925,915.91 C351.977509,916.610003 353.517494,917.519994 354.8125,918.64 C356.107506,919.760006 357.122496,921.124992 357.8575,922.735 C358.592504,924.345008 358.96,926.304988 358.96,928.615 C358.96,931.415014 358.365006,933.81249 357.175,935.8075 C355.984994,937.80251 354.445009,939.429994 352.555,940.69 C350.664991,941.950006 348.512512,942.859997 346.0975,943.42 C343.682488,943.980003 341.250012,944.26 338.8,944.26 C334.669979,944.26 331.047516,943.630006 327.9325,942.37 C324.817484,941.109994 322.035012,938.800017 319.585,935.44 L326.725,929.56 C328.265008,931.100008 329.979991,932.464994 331.87,933.655 C333.760009,934.845006 336.069986,935.44 338.8,935.44 C339.990006,935.44 341.197494,935.317501 342.4225,935.0725 C343.647506,934.827499 344.732495,934.442503 345.6775,933.9175 C346.622505,933.392497 347.392497,932.727504 347.9875,931.9225 C348.582503,931.117496 348.88,930.190005 348.88,929.14 C348.88,927.739993 348.442504,926.585005 347.5675,925.675 C346.692496,924.764995 345.642506,924.047503 344.4175,923.5225 C343.192494,922.997497 341.897507,922.577502 340.5325,922.2625 C339.167493,921.947498 337.960005,921.685001 336.91,921.475 C334.87999,920.984998 332.955009,920.425003 331.135,919.795 C329.314991,919.164997 327.705007,918.325005 326.305,917.275 C324.904993,916.224995 323.785004,914.895008 322.945,913.285 C322.104996,911.674992 321.685,909.680012 321.685,907.3 C321.685,904.709987 322.227495,902.45251 323.3125,900.5275 C324.397505,898.60249 325.832491,897.010006 327.6175,895.75 C329.402509,894.489994 331.432489,893.545003 333.7075,892.915 C335.982511,892.284997 338.274988,891.97 340.585,891.97 C343.945017,891.97 347.164985,892.599994 350.245,893.86 C353.325015,895.120006 355.774991,897.219985 357.595,900.16 L350.245,905.725 Z M397.075,901.42 L383.53,901.42 L383.53,923.995 C383.53,925.395007 383.565,926.777493 383.635,928.1425 C383.705,929.507507 383.967498,930.732495 384.4225,931.8175 C384.877502,932.902505 385.577495,933.777497 386.5225,934.4425 C387.467505,935.107503 388.849991,935.44 390.67,935.44 C391.790006,935.44 392.944994,935.335001 394.135,935.125 C395.325006,934.914999 396.409995,934.530003 397.39,933.97 L397.39,942.58 C396.269994,943.210003 394.817509,943.647499 393.0325,943.8925 C391.247491,944.137501 389.865005,944.26 388.885,944.26 C385.244982,944.26 382.42751,943.752505 380.4325,942.7375 C378.43749,941.722495 376.967505,940.410008 376.0225,938.8 C375.077495,937.189992 374.517501,935.38751 374.3425,933.3925 C374.167499,931.39749 374.08,929.38501 374.08,927.355 L374.08,901.42 L363.16,901.42 L363.16,893.23 L374.08,893.23 L374.08,879.265 L383.53,879.265 L383.53,893.23 L397.075,893.23 L397.075,901.42 Z" id="Protist" fill="#323230"></path>
    </g>
</svg>