<?xml version="1.0" encoding="UTF-8" standalone="no"?>
<svg width="298px" height="77px" viewBox="0 0 298 77" version="1.1" xmlns="http://www.w3.org/2000/svg" xmlns:xlink="http://www.w3.org/1999/xlink">
    <!-- Generator: Sketch 48.1 (47250) - http://www.bohemiancoding.com/sketch -->
    <title>Protist</title>
    <desc>Created with Sketch.</desc>
    <defs></defs>
    <g id="Work---Rapt-Media" stroke="none" stroke-width="1" fill="none" fill-rule="evenodd" transform="translate(-50.000000, -48.000000)">
        <path d="M50.555,48.66 L76.7,48.66 C81.4600238,48.66 85.3799846,49.3074935 88.46,50.6025 C91.5400154,51.8975065 93.9724911,53.54249 95.7575,55.5375 C97.5425089,57.53251 98.7849965,59.7724876 99.485,62.2575 C100.185003,64.7425124 100.535,67.1399885 100.535,69.45 C100.535,71.7600116 100.185003,74.1574876 99.485,76.6425 C98.7849965,79.1275124 97.5425089,81.36749 95.7575,83.3625 C93.9724911,85.35751 91.5400154,87.0024935 88.46,88.2975 C85.3799846,89.5925065 81.4600238,90.24 76.7,90.24 L60.635,90.24 L60.635,123 L50.555,123 L50.555,48.66 Z M60.635,81.42 L73.865,81.42 C75.8250098,81.42 77.7674904,81.2625016 79.6925,80.9475 C81.6175096,80.6324984 83.3324925,80.0550042 84.8375,79.215 C86.3425075,78.3749958 87.5499954,77.1675079 88.46,75.5925 C89.3700046,74.0174921 89.825,71.9700126 89.825,69.45 C89.825,66.9299874 89.3700046,64.8825079 88.46,63.3075 C87.5499954,61.7324921 86.3425075,60.5250042 84.8375,59.685 C83.3324925,58.8449958 81.6175096,58.2675016 79.6925,57.9525 C77.7674904,57.6374984 75.8250098,57.48 73.865,57.48 L60.635,57.48 L60.635,81.42 Z M110.405,73.23 L119.855,73.23 L119.855,80.895 L120.065,80.895 C120.695003,79.5649934 121.534995,78.3575054 122.585,77.2725 C123.635005,76.1874946 124.807494,75.2600039 126.1025,74.49 C127.397506,73.7199962 128.814992,73.1075023 130.355,72.6525 C131.895008,72.1974977 133.434992,71.97 134.975,71.97 C136.515008,71.97 137.914994,72.1799979 139.175,72.6 L138.755,82.785 C137.984996,82.5749989 137.215004,82.4000007 136.445,82.26 C135.674996,82.1199993 134.905004,82.05 134.135,82.05 C129.514977,82.05 125.980012,83.3449871 123.53,85.935 C121.079988,88.5250129 119.855,92.5499727 119.855,98.01 L119.855,123 L110.405,123 L110.405,73.23 Z M155.03,98.115 C155.03,100.635013 155.414996,102.962489 156.185,105.0975 C156.955004,107.232511 158.039993,109.052492 159.44,110.5575 C160.840007,112.062508 162.55499,113.252496 164.585,114.1275 C166.61501,115.002504 168.889987,115.44 171.41,115.44 C173.930013,115.44 176.20499,115.002504 178.235,114.1275 C180.26501,113.252496 181.979993,112.062508 183.38,110.5575 C184.780007,109.052492 185.864996,107.232511 186.635,105.0975 C187.405004,102.962489 187.79,100.635013 187.79,98.115 C187.79,95.5949874 187.405004,93.2675107 186.635,91.1325 C185.864996,88.9974893 184.780007,87.1775075 183.38,85.6725 C181.979993,84.1674925 180.26501,82.9775044 178.235,82.1025 C176.20499,81.2274956 173.930013,80.79 171.41,80.79 C168.889987,80.79 166.61501,81.2274956 164.585,82.1025 C162.55499,82.9775044 160.840007,84.1674925 159.44,85.6725 C158.039993,87.1775075 156.955004,88.9974893 156.185,91.1325 C155.414996,93.2675107 155.03,95.5949874 155.03,98.115 Z M144.95,98.115 C144.95,94.4749818 145.632493,91.0800158 146.9975,87.93 C148.362507,84.7799843 150.234988,82.0150119 152.615,79.635 C154.995012,77.2549881 157.794984,75.3825068 161.015,74.0175 C164.235016,72.6524932 167.699981,71.97 171.41,71.97 C175.120019,71.97 178.584984,72.6524932 181.805,74.0175 C185.025016,75.3825068 187.824988,77.2549881 190.205,79.635 C192.585012,82.0150119 194.457493,84.7799843 195.8225,87.93 C197.187507,91.0800158 197.87,94.4749818 197.87,98.115 C197.87,101.755018 197.187507,105.167484 195.8225,108.3525 C194.457493,111.537516 192.585012,114.302488 190.205,116.6475 C187.824988,118.992512 185.025016,120.847493 181.805,122.2125 C178.584984,123.577507 175.120019,124.26 171.41,124.26 C167.699981,124.26 164.235016,123.577507 161.015,122.2125 C157.794984,120.847493 154.995012,118.992512 152.615,116.6475 C150.234988,114.302488 148.362507,111.537516 146.9975,108.3525 C145.632493,105.167484 144.95,101.755018 144.95,98.115 Z M236.405,81.42 L222.86,81.42 L222.86,103.995 C222.86,105.395007 222.895,106.777493 222.965,108.1425 C223.035,109.507507 223.297498,110.732495 223.7525,111.8175 C224.207502,112.902505 224.907495,113.777497 225.8525,114.4425 C226.797505,115.107503 228.179991,115.44 230,115.44 C231.120006,115.44 232.274994,115.335001 233.465,115.125 C234.655006,114.914999 235.739995,114.530003 236.72,113.97 L236.72,122.58 C235.599994,123.210003 234.147509,123.647499 232.3625,123.8925 C230.577491,124.137501 229.195005,124.26 228.215,124.26 C224.574982,124.26 221.75751,123.752505 219.7625,122.7375 C217.76749,121.722495 216.297505,120.410008 215.3525,118.8 C214.407495,117.189992 213.847501,115.38751 213.6725,113.3925 C213.497499,111.39749 213.41,109.38501 213.41,107.355 L213.41,81.42 L202.49,81.42 L202.49,73.23 L213.41,73.23 L213.41,59.265 L222.86,59.265 L222.86,73.23 L236.405,73.23 L236.405,81.42 Z M249.32,73.23 L258.77,73.23 L258.77,123 L249.32,123 L249.32,73.23 Z M247.115,55.38 C247.115,53.4899905 247.797493,51.8625068 249.1625,50.4975 C250.527507,49.1324932 252.154991,48.45 254.045,48.45 C255.935009,48.45 257.562493,49.1324932 258.9275,50.4975 C260.292507,51.8625068 260.975,53.4899905 260.975,55.38 C260.975,57.2700095 260.292507,58.8974932 258.9275,60.2625 C257.562493,61.6275068 255.935009,62.31 254.045,62.31 C252.154991,62.31 250.527507,61.6275068 249.1625,60.2625 C247.797493,58.8974932 247.115,57.2700095 247.115,55.38 Z M300.245,85.725 C299.124994,84.324993 297.742508,83.1525047 296.0975,82.2075 C294.452492,81.2624953 292.440012,80.79 290.06,80.79 C287.819989,80.79 285.877508,81.2624953 284.2325,82.2075 C282.587492,83.1525047 281.765,84.5349909 281.765,86.355 C281.765,87.8250074 282.237495,89.0149955 283.1825,89.925 C284.127505,90.8350046 285.247494,91.5699972 286.5425,92.13 C287.837506,92.6900028 289.219993,93.1099986 290.69,93.39 C292.160007,93.6700014 293.419995,93.914999 294.47,94.125 C296.50001,94.6150024 298.407491,95.2099965 300.1925,95.91 C301.977509,96.6100035 303.517494,97.5199944 304.8125,98.64 C306.107506,99.7600056 307.122496,101.124992 307.8575,102.735 C308.592504,104.345008 308.96,106.304988 308.96,108.615 C308.96,111.415014 308.365006,113.81249 307.175,115.8075 C305.984994,117.80251 304.445009,119.429994 302.555,120.69 C300.664991,121.950006 298.512512,122.859997 296.0975,123.42 C293.682488,123.980003 291.250012,124.26 288.8,124.26 C284.669979,124.26 281.047516,123.630006 277.9325,122.37 C274.817484,121.109994 272.035012,118.800017 269.585,115.44 L276.725,109.56 C278.265008,111.100008 279.979991,112.464994 281.87,113.655 C283.760009,114.845006 286.069986,115.44 288.8,115.44 C289.990006,115.44 291.197494,115.317501 292.4225,115.0725 C293.647506,114.827499 294.732495,114.442503 295.6775,113.9175 C296.622505,113.392497 297.392497,112.727504 297.9875,111.9225 C298.582503,111.117496 298.88,110.190005 298.88,109.14 C298.88,107.739993 298.442504,106.585005 297.5675,105.675 C296.692496,104.764995 295.642506,104.047503 294.4175,103.5225 C293.192494,102.997497 291.897507,102.577502 290.5325,102.2625 C289.167493,101.947498 287.960005,101.685001 286.91,101.475 C284.87999,100.984998 282.955009,100.425003 281.135,99.795 C279.314991,99.1649969 277.705007,98.3250053 276.305,97.275 C274.904993,96.2249948 273.785004,94.8950081 272.945,93.285 C272.104996,91.6749919 271.685,89.6800119 271.685,87.3 C271.685,84.709987 272.227495,82.4525096 273.3125,80.5275 C274.397505,78.6024904 275.832491,77.0100063 277.6175,75.75 C279.402509,74.4899937 281.432489,73.5450032 283.7075,72.915 C285.982511,72.2849968 288.274988,71.97 290.585,71.97 C293.945017,71.97 297.164985,72.5999937 300.245,73.86 C303.325015,75.1200063 305.774991,77.2199853 307.595,80.16 L300.245,85.725 Z M347.075,81.42 L333.53,81.42 L333.53,103.995 C333.53,105.395007 333.565,106.777493 333.635,108.1425 C333.705,109.507507 333.967498,110.732495 334.4225,111.8175 C334.877502,112.902505 335.577495,113.777497 336.5225,114.4425 C337.467505,115.107503 338.849991,115.44 340.67,115.44 C341.790006,115.44 342.944994,115.335001 344.135,115.125 C345.325006,114.914999 346.409995,114.530003 347.39,113.97 L347.39,122.58 C346.269994,123.210003 344.817509,123.647499 343.0325,123.8925 C341.247491,124.137501 339.865005,124.26 338.885,124.26 C335.244982,124.26 332.42751,123.752505 330.4325,122.7375 C328.43749,121.722495 326.967505,120.410008 326.0225,118.8 C325.077495,117.189992 324.517501,115.38751 324.3425,113.3925 C324.167499,111.39749 324.08,109.38501 324.08,107.355 L324.08,81.42 L313.16,81.42 L313.16,73.23 L324.08,73.23 L324.08,59.265 L333.53,59.265 L333.53,73.23 L347.075,73.23 L347.075,81.42 Z" id="Protist" fill="#F3F1E2"></path>
    </g>
</svg>