<svg width="298" height="77" viewBox="0 0 298 77" xmlns="http://www.w3.org/2000/svg"><title>Protist</title><path d="M.555.66H26.7c4.76 0 8.68.647 11.76 1.942 3.08 1.296 5.512 2.94 7.297 4.936 1.786 1.995 3.028 4.234 3.728 6.72.7 2.485 1.05 4.882 1.05 7.192 0 2.31-.35 4.707-1.05 7.193-.7 2.485-1.942 4.724-3.728 6.72-1.785 1.995-4.217 3.64-7.297 4.935-3.08 1.295-7 1.942-11.76 1.942H10.635V75H.555V.66zm10.08 32.76h13.23c1.96 0 3.902-.157 5.827-.473 1.926-.315 3.64-.892 5.146-1.732 1.505-.84 2.712-2.047 3.622-3.623.91-1.575 1.365-3.622 1.365-6.142 0-2.52-.455-4.567-1.365-6.142-.91-1.576-2.117-2.783-3.622-3.623-1.506-.84-3.22-1.417-5.146-1.733a36.026 36.026 0 0 0-5.827-.472h-13.23v23.94zm49.77-8.19h9.45v7.665h.21c.63-1.33 1.47-2.537 2.52-3.622a16.877 16.877 0 0 1 3.517-2.783 18.583 18.583 0 0 1 4.253-1.837c1.54-.456 3.08-.683 4.62-.683s2.94.21 4.2.63l-.42 10.185c-.77-.21-1.54-.385-2.31-.525s-1.54-.21-2.31-.21c-4.62 0-8.155 1.295-10.605 3.885-2.45 2.59-3.675 6.615-3.675 12.075V75h-9.45V25.23zm44.625 24.885c0 2.52.385 4.847 1.155 6.982.77 2.136 1.855 3.955 3.255 5.46 1.4 1.506 3.115 2.695 5.145 3.57 2.03.876 4.305 1.313 6.825 1.313 2.52 0 4.795-.437 6.825-1.312 2.03-.876 3.745-2.065 5.145-3.57 1.4-1.506 2.485-3.325 3.255-5.46.77-2.136 1.155-4.463 1.155-6.983 0-2.52-.385-4.847-1.155-6.982-.77-2.136-1.855-3.955-3.255-5.46-1.4-1.506-3.115-2.695-5.145-3.57-2.03-.876-4.305-1.313-6.825-1.313-2.52 0-4.795.437-6.825 1.312-2.03.876-3.745 2.065-5.145 3.57-1.4 1.506-2.485 3.325-3.255 5.46-.77 2.136-1.155 4.463-1.155 6.983zm-10.08 0c0-3.64.682-7.035 2.047-10.185 1.366-3.15 3.238-5.915 5.618-8.295 2.38-2.38 5.18-4.252 8.4-5.617 3.22-1.366 6.685-2.048 10.395-2.048s7.175.682 10.395 2.048c3.22 1.365 6.02 3.237 8.4 5.617 2.38 2.38 4.252 5.145 5.617 8.295 1.366 3.15 2.048 6.545 2.048 10.185 0 3.64-.682 7.052-2.048 10.237-1.365 3.186-3.237 5.95-5.617 8.296-2.38 2.345-5.18 4.2-8.4 5.564-3.22 1.366-6.685 2.048-10.395 2.048s-7.175-.682-10.395-2.048c-3.22-1.365-6.02-3.22-8.4-5.564-2.38-2.346-4.252-5.11-5.617-8.296-1.366-3.185-2.048-6.597-2.048-10.237zm91.455-16.695H172.86v22.575c0 1.4.035 2.782.105 4.148.07 1.365.332 2.59.787 3.674a5.96 5.96 0 0 0 2.1 2.625c.946.666 2.328.998 4.148.998 1.12 0 2.275-.105 3.465-.315a10.01 10.01 0 0 0 3.255-1.155v8.61c-1.12.63-2.572 1.067-4.357 1.313-1.786.245-3.168.367-4.148.367-3.64 0-6.457-.507-8.453-1.523-1.995-1.015-3.464-2.327-4.41-3.937-.945-1.61-1.504-3.412-1.68-5.407a69.06 69.06 0 0 1-.262-6.038V33.42h-10.92v-8.19h10.92V11.265h9.45V25.23h13.545v8.19zm12.915-8.19h9.45V75h-9.45V25.23zm-2.205-17.85c0-1.89.682-3.517 2.048-4.883 1.365-1.365 2.992-2.047 4.882-2.047 1.89 0 3.517.682 4.883 2.047 1.365 1.366 2.047 2.993 2.047 4.883 0 1.89-.682 3.517-2.047 4.883-1.366 1.365-2.993 2.047-4.883 2.047-1.89 0-3.517-.682-4.882-2.047-1.366-1.366-2.048-2.993-2.048-4.883zm53.13 30.345c-1.12-1.4-2.502-2.572-4.147-3.518-1.646-.945-3.658-1.417-6.038-1.417-2.24 0-4.182.472-5.827 1.417-1.646.946-2.468 2.328-2.468 4.148 0 1.47.472 2.66 1.418 3.57.945.91 2.064 1.645 3.36 2.205 1.295.56 2.677.98 4.147 1.26 1.47.28 2.73.525 3.78.735 2.03.49 3.937 1.085 5.722 1.785 1.786.7 3.325 1.61 4.62 2.73a11.84 11.84 0 0 1 3.046 4.095c.735 1.61 1.102 3.57 1.102 5.88 0 2.8-.595 5.197-1.785 7.193-1.19 1.995-2.73 3.622-4.62 4.882-1.89 1.26-4.042 2.17-6.457 2.73-2.416.56-4.848.84-7.298.84-4.13 0-7.752-.63-10.868-1.89-3.115-1.26-5.897-3.57-8.347-6.93l7.14-5.88a29.398 29.398 0 0 0 5.145 4.095c1.89 1.19 4.2 1.785 6.93 1.785 1.19 0 2.397-.122 3.623-.368 1.225-.245 2.31-.63 3.255-1.154.945-.526 1.714-1.19 2.31-1.995.595-.806.892-1.733.892-2.783 0-1.4-.437-2.555-1.313-3.465a9.51 9.51 0 0 0-3.15-2.152 22.929 22.929 0 0 0-3.884-1.26 127.79 127.79 0 0 0-3.623-.788 62.457 62.457 0 0 1-5.775-1.68c-1.82-.63-3.43-1.47-4.83-2.52s-2.52-2.38-3.36-3.99c-.84-1.61-1.26-3.605-1.26-5.985 0-2.59.542-4.847 1.627-6.772a14.464 14.464 0 0 1 4.305-4.778c1.786-1.26 3.815-2.205 6.09-2.835a25.66 25.66 0 0 1 6.878-.945c3.36 0 6.58.63 9.66 1.89 3.08 1.26 5.53 3.36 7.35 6.3l-7.35 5.565zm46.83-4.305H283.53v22.575c0 1.4.035 2.782.105 4.148.07 1.365.332 2.59.788 3.674a5.96 5.96 0 0 0 2.1 2.625c.945.666 2.327.998 4.147.998 1.12 0 2.275-.105 3.465-.315a10.01 10.01 0 0 0 3.255-1.155v8.61c-1.12.63-2.572 1.067-4.357 1.313-1.786.245-3.168.367-4.148.367-3.64 0-6.457-.507-8.452-1.523-1.996-1.015-3.465-2.327-4.41-3.937-.946-1.61-1.505-3.412-1.68-5.407a69.06 69.06 0 0 1-.263-6.038V33.42h-10.92v-8.19h10.92V11.265h9.45V25.23h13.545v8.19z" fill="#FFF" fill-rule="evenodd"/></svg>