<svg width="475" height="64" viewBox="0 0 475 64" xmlns="http://www.w3.org/2000/svg"><title>Line + Line Copy + 01 + Triangle 4 Copy Copy Copy</title><g fill="none" fill-rule="evenodd"><path d="M183.5 36H2.456M472.5 36H291.456" stroke="#323230" stroke-width="4" stroke-linecap="square"/><path d="M230.989 48.231c-1.512 0-2.835-.63-3.738-1.848-.987-1.344-1.449-3.423-1.449-5.985 0-2.562.462-4.641 1.449-5.985.903-1.218 2.226-1.848 3.738-1.848s2.835.63 3.738 1.848c.987 1.344 1.449 3.423 1.449 5.985 0 2.562-.462 4.641-1.449 5.985-.903 1.218-2.226 1.848-3.738 1.848zm0-1.848c.903 0 1.596-.399 2.1-1.029.882-1.134 1.092-3.129 1.092-4.956 0-1.827-.21-3.822-1.092-4.956-.504-.63-1.197-1.029-2.1-1.029s-1.596.399-2.1 1.029c-.882 1.134-1.092 3.129-1.092 4.956 0 1.827.21 3.822 1.092 4.956.504.63 1.197 1.029 2.1 1.029zm6.993 1.575l5.019-6.027c1.722-2.058 2.541-3.381 2.541-4.809 0-1.764-1.239-2.709-3.003-2.709-1.071 0-2.331.357-3.402 1.134v-2.016c.777-.504 2.037-.966 3.507-.966 2.688 0 4.893 1.533 4.893 4.452 0 2.079-1.134 3.822-2.919 5.964l-2.646 3.171.021.042h6.09V48h-10.08l-.021-.042z" fill="#323230"/><path stroke="#D5B3C8" stroke-width="4" d="M237 4l40.5 57.553h-81z"/></g></svg>