<svg width="475" height="64" viewBox="0 0 475 64" xmlns="http://www.w3.org/2000/svg"><title>Group 10</title><g fill="none" fill-rule="evenodd"><path d="M183.5 36H2.456M472.5 36H291.456" stroke="#323230" stroke-width="4" stroke-linecap="square"/><path stroke="#323230" stroke-width="4" d="M237 4l40.5 57.553h-81z"/><path d="M230.989 48.231c-1.512 0-2.835-.63-3.738-1.848-.987-1.344-1.449-3.423-1.449-5.985 0-2.562.462-4.641 1.449-5.985.903-1.218 2.226-1.848 3.738-1.848s2.835.63 3.738 1.848c.987 1.344 1.449 3.423 1.449 5.985 0 2.562-.462 4.641-1.449 5.985-.903 1.218-2.226 1.848-3.738 1.848zm0-1.848c.903 0 1.596-.399 2.1-1.029.882-1.134 1.092-3.129 1.092-4.956 0-1.827-.21-3.822-1.092-4.956-.504-.63-1.197-1.029-2.1-1.029s-1.596.399-2.1 1.029c-.882 1.134-1.092 3.129-1.092 4.956 0 1.827.21 3.822 1.092 4.956.504.63 1.197 1.029 2.1 1.029zM242.581 48V35.253l-3.486 1.344v-1.911l5.481-2.121V48h-1.995z" fill="#323230"/></g></svg>