<svg width="475" height="64" viewBox="0 0 475 64" xmlns="http://www.w3.org/2000/svg"><title>Line + Line Copy + 01 + Triangle 4 Copy Copy Copy</title><g fill="none" fill-rule="evenodd"><path d="M183.5 36H2.456M472.5 36H291.456" stroke="#323230" stroke-width="4" stroke-linecap="square"/><path d="M230.989 48.231c-1.512 0-2.835-.63-3.738-1.848-.987-1.344-1.449-3.423-1.449-5.985 0-2.562.462-4.641 1.449-5.985.903-1.218 2.226-1.848 3.738-1.848s2.835.63 3.738 1.848c.987 1.344 1.449 3.423 1.449 5.985 0 2.562-.462 4.641-1.449 5.985-.903 1.218-2.226 1.848-3.738 1.848zm0-1.848c.903 0 1.596-.399 2.1-1.029.882-1.134 1.092-3.129 1.092-4.956 0-1.827-.21-3.822-1.092-4.956-.504-.63-1.197-1.029-2.1-1.029s-1.596.399-2.1 1.029c-.882 1.134-1.092 3.129-1.092 4.956 0 1.827.21 3.822 1.092 4.956.504.63 1.197 1.029 2.1 1.029zm7.602.441v-2.289c1.26 1.239 2.73 1.848 4.158 1.848 1.806 0 3.108-.966 3.108-2.583 0-1.491-1.071-2.541-3.234-2.541h-1.428v-1.764h1.365c1.911 0 2.982-1.05 2.982-2.541 0-1.575-1.197-2.541-2.919-2.541-1.134 0-2.268.42-3.129 1.029v-2.037c.84-.504 1.995-.84 3.234-.84 2.772 0 4.809 1.68 4.809 4.2 0 1.701-.945 3.003-2.436 3.444v.042c1.89.399 2.751 1.911 2.751 3.591 0 2.646-2.142 4.389-5.082 4.389-1.764 0-3.297-.63-4.179-1.407z" fill="#323230"/><path stroke="#EFE144" stroke-width="4" d="M237 4l40.5 57.553h-81z"/></g></svg>