<svg width="1400" height="1000" viewBox="0 0 1400 1000" xmlns="http://www.w3.org/2000/svg"><title>Artboard 3</title><g fill="none" fill-rule="evenodd"><path fill="#323230" fill-rule="nonzero" d="M902.687 511.87l-3.571-3.5 200.197-204.24 3.571 3.5zM66.938 582.895l.124-4.999c24.137.597 33.72 1.027 45.062 2.326 14.604 1.673 26.502 4.607 37.395 9.507 24.005 10.796 43.904 31.757 65.348 69.74 20.556 36.41 41.518 57.448 66.135 68.249 10.856 4.763 22.572 7.645 36.316 9.185 11.095 1.242 22.107 1.597 41.062 1.597v5c-19.13 0-30.288-.36-41.619-1.628-14.215-1.592-26.414-4.593-37.768-9.575-25.702-11.278-47.43-33.083-68.48-70.37-20.964-37.134-40.147-57.34-63.045-67.638-10.376-4.667-21.786-7.48-35.913-9.099-11.14-1.276-20.637-1.703-44.617-2.295zM294.685 367.5l15.055 15.411-3.577 3.494-20.564-21.052 21.064-21.564 3.577 3.494-14.865 15.217h47.294v5h-47.984zM470.483 379.755l.016-22.29 5 .003-.021 30.287-31.025.051-.008-5 21.983-.036-33.512-33.51 3.536-3.536 34.031 34.031zM174.5 107.5V305h-5V102.5H369v5z"/><path d="M212.073 147.545l13-12.806 1.07-1.052 2.105 2.137-1.069 1.053-13.001 12.806 12.806 13 1.053 1.07-2.138 2.105-1.052-1.069-12.806-13.001-13.598 13.394-1.069 1.053-2.105-2.138 1.068-1.052 13.598-13.394-13.394-13.598-1.052-1.069 2.137-2.105 1.053 1.068 13.394 13.598z" stroke="#323230" stroke-width="3" stroke-linecap="square"/><path d="M661 662.5c-57.173 0-103.5-47.245-103.5-105.5S603.827 451.5 661 451.5 764.5 498.745 764.5 557 718.173 662.5 661 662.5zm0-5c54.389 0 98.5-44.985 98.5-100.5S715.389 456.5 661 456.5s-98.5 44.985-98.5 100.5 44.111 100.5 98.5 100.5z" fill="#323230" fill-rule="nonzero"/><g fill="#323230" fill-rule="nonzero"><path d="M999.15 747.328c-8.723 9.18-21.9 14.659-40.242 14.659v-5c16.992 0 28.852-4.932 36.617-13.104 2.69-2.83 4.685-5.858 6.09-8.876.487-1.045.863-2.01 1.143-2.867.16-.49.25-.82.281-.96l1.884-8.45 2.911 8.154c.057.16.196.508.422 1.02.39.88.882 1.868 1.48 2.938a43.98 43.98 0 0 0 6.707 9.03c7.902 8.203 18.588 13.115 32.607 13.115 14.045 0 25.15-4.935 33.711-13.182a49.29 49.29 0 0 0 7.426-9.081 39.687 39.687 0 0 0 1.71-2.958c.268-.515.435-.869.506-1.033l2.105-4.874 2.416 4.727c.09.175.288.54.597 1.066a49.747 49.747 0 0 0 1.914 2.993 59.393 59.393 0 0 0 7.774 9.157c8.607 8.26 18.969 13.185 31.158 13.185v5c-13.604 0-25.146-5.486-34.62-14.578a64.355 64.355 0 0 1-8.928-10.663 54.26 54.26 0 0 1-8.589 10.66c-9.451 9.105-21.774 14.581-37.18 14.581-15.433 0-27.397-5.5-36.208-14.647a48.993 48.993 0 0 1-7.092-9.395c-1.594 3.21-3.763 6.397-6.6 9.383zM999.15 793.197c-8.723 9.18-21.9 14.659-40.242 14.659v-5c16.992 0 28.852-4.932 36.617-13.103 2.69-2.83 4.685-5.859 6.09-8.877.487-1.045.863-2.01 1.143-2.867.16-.49.25-.82.281-.96l1.884-8.45 2.911 8.154c.057.16.196.508.422 1.02.39.88.882 1.868 1.48 2.938a43.98 43.98 0 0 0 6.707 9.03c7.902 8.203 18.588 13.115 32.607 13.115 14.045 0 25.15-4.935 33.711-13.182a49.29 49.29 0 0 0 7.426-9.081 39.687 39.687 0 0 0 1.71-2.958c.268-.515.435-.869.506-1.033l2.105-4.874 2.416 4.727c.09.175.288.54.597 1.066a49.747 49.747 0 0 0 1.914 2.993 59.393 59.393 0 0 0 7.774 9.157c8.607 8.26 18.969 13.185 31.158 13.185v5c-13.604 0-25.146-5.486-34.62-14.578a64.355 64.355 0 0 1-8.928-10.663 54.26 54.26 0 0 1-8.589 10.66c-9.451 9.105-21.774 14.581-37.18 14.581-15.433 0-27.397-5.5-36.208-14.647a48.993 48.993 0 0 1-7.092-9.395c-1.594 3.21-3.763 6.397-6.6 9.383z"/></g></g></svg>