<svg width="1338" height="1160" viewBox="0 0 1338 1160" xmlns="http://www.w3.org/2000/svg"><title>symbols</title><g fill="#323230" fill-rule="nonzero"><path d="M906.5 444.036l-3.536-3.536L1057.5 285.964l3.536 3.536zM97.94 649.566l.12-4.998c22.95.557 32.06.959 42.846 2.172 13.891 1.563 25.21 4.304 35.575 8.882 22.847 10.09 41.786 29.68 62.186 65.165 19.526 33.964 39.432 53.582 62.808 63.655C320.283 792.546 338.047 794.5 375 794.5v5c-18.189 0-28.798-.335-39.574-1.52-13.521-1.488-25.126-4.291-35.93-8.946-24.459-10.54-45.136-30.918-65.163-65.755-19.915-34.64-38.13-53.48-59.872-63.084-9.854-4.352-20.692-6.977-34.114-8.486-10.587-1.191-19.614-1.59-42.408-2.143zM333.677 437l11.468 11.32-2.81 2.847-16.11-15.902 16.499-16.286 2.81 2.847L334.214 433h36.528v4h-37.065zM463.956 445.128l-.104-16.114 4-.026.146 22.636-23.182-.15.026-4 15.906.103-25.83-25.83 2.83-2.828 26.208 26.209zM147.5 165.5V313h-5V160.5H295v5z"/><path d="M161.672 185.5l2.828-2.828 24.38 24.38-2.828 2.829z"/><path d="M175.276 193.448l10.776-10.776 2.829 2.828-10.776 10.776 10.776 10.776-2.829 2.829-10.776-10.776L164.5 209.88l-2.828-2.829 10.776-10.776-10.776-10.776 2.828-2.828 10.776 10.776z"/><path d="M164.5 209.88l-2.828-2.828 24.38-24.38 2.829 2.828zM610 711c-42.526 0-77-34.474-77-77s34.474-77 77-77 77 34.474 77 77-34.474 77-77 77zm0-4c40.317 0 73-32.683 73-73s-32.683-73-73-73-73 32.683-73 73 32.683 73 73 73z"/><g><path d="M932.004 805.76c-1.517 2.797-3.539 5.584-6.138 8.187-7.538 7.548-18.34 12.071-32.864 12.086l-.004-4c13.459-.014 23.246-4.111 30.038-10.913 2.366-2.37 4.191-4.906 5.542-7.435a24.61 24.61 0 0 0 1.132-2.408c.167-.415.264-.697.302-.821l1.747-5.791 2.05 5.69c.048.134.164.425.354.85.327.73.739 1.552 1.24 2.44a36.53 36.53 0 0 0 5.617 7.495c6.621 6.813 15.578 10.893 27.324 10.893 11.768 0 21.075-4.099 28.247-10.946a40.984 40.984 0 0 0 6.218-7.537 32.874 32.874 0 0 0 1.432-2.455c.225-.429.365-.723.425-.86l1.681-3.86 1.93 3.742c.075.146.242.448.5.886.442.745.977 1.58 1.603 2.484a49.393 49.393 0 0 0 6.508 7.597c7.21 6.859 15.894 10.95 26.112 10.95v4c-11.342 0-20.966-4.535-28.869-12.051a53.363 53.363 0 0 1-7.534-8.945 44.96 44.96 0 0 1-7.244 8.942c-7.884 7.528-18.16 12.053-31.009 12.053-12.87 0-22.844-4.544-30.193-12.106a40.517 40.517 0 0 1-6.147-8.167zM925.866 851.913c-7.538 7.549-18.34 12.072-32.864 12.087l-.004-4c13.459-.014 23.246-4.112 30.038-10.913 2.366-2.37 4.191-4.906 5.542-7.435a24.61 24.61 0 0 0 1.132-2.408c.167-.416.264-.697.302-.822l1.747-5.79 2.05 5.69c.048.134.164.425.354.85.327.73.739 1.551 1.24 2.44a36.53 36.53 0 0 0 5.617 7.494C947.641 855.92 956.598 860 968.344 860c11.768 0 21.075-4.1 28.247-10.947a40.984 40.984 0 0 0 6.218-7.537 32.874 32.874 0 0 0 1.432-2.455c.225-.428.365-.723.425-.86l1.681-3.86 1.93 3.742c.075.146.242.449.5.886.442.746.977 1.581 1.603 2.484a49.393 49.393 0 0 0 6.508 7.598c7.21 6.858 15.894 10.949 26.112 10.949v4c-11.342 0-20.966-4.534-28.869-12.05a53.363 53.363 0 0 1-7.534-8.946 44.96 44.96 0 0 1-7.244 8.942c-7.884 7.528-18.16 12.054-31.009 12.054-12.87 0-22.844-4.544-30.193-12.106a40.517 40.517 0 0 1-6.147-8.168c-1.517 2.798-3.539 5.584-6.138 8.187z"/></g></g></svg>