<svg width="1338" height="1160" viewBox="0 0 1338 1160" xmlns="http://www.w3.org/2000/svg"><title>big-letters</title><g fill="none" fill-rule="evenodd"><path d="M890.268 474.268l151-151 1.768-1.768-3.536-3.536-1.768 1.768-151 151-1.768 1.768 3.536 3.536 1.768-1.768zM96.94 652.566c22.793.553 31.82.952 42.407 2.143 13.422 1.51 24.26 4.134 34.114 8.486 21.742 9.603 39.957 28.444 59.872 63.084 20.027 34.837 40.704 55.216 65.163 65.755 10.804 4.655 22.409 7.458 35.93 8.945 10.776 1.186 21.385 1.521 39.574 1.521v-5c-36.953 0-54.717-1.954-73.525-10.058-23.376-10.073-43.282-29.691-62.808-63.655-20.4-35.485-39.339-55.074-62.186-65.165-10.364-4.578-21.684-7.32-35.575-8.882-10.786-1.213-19.897-1.615-42.845-2.172l-.122 4.998z" fill="#323230"/><g stroke="#323230" stroke-width="4"><path d="M355.742 450h-40.558M329.129 435.402l-15.056 14.863 14.667 14.479"/></g><g stroke="#323230" stroke-width="4"><path d="M421.333 435.333l28.679 28.679M429.83 464.474l21.155.137-.133-20.61"/></g><path d="M294 175.5H141.5V328h5V178l-2.5 2.5h150v-5z" fill="#323230"/><g stroke="#323230" stroke-width="4" stroke-linecap="square"><path d="M163.5 200.5l21.552 21.552M163.5 222.5l21.552-21.552"/></g><path d="M618 710c42.526 0 77-34.474 77-77s-34.474-77-77-77-77 34.474-77 77 34.474 77 77 77zm0-4c-40.317 0-73-32.683-73-73s32.683-73 73-73 73 32.683 73 73-32.683 73-73 73z" fill="#323230"/><g fill="#323230"><path d="M880 841.033c15.304 0 26.29-4.528 33.565-12.115 2.57-2.68 4.483-5.557 5.837-8.44.824-1.757 1.284-3.152 1.476-4.006l-3.833.24c.295.818.903 2.177 1.874 3.898a40.504 40.504 0 0 0 6.232 8.317c7.349 7.562 17.324 12.106 30.193 12.106 12.85 0 23.125-4.525 31.009-12.053a44.96 44.96 0 0 0 6.826-8.275c1.094-1.711 1.8-3.062 2.154-3.873l-3.611.118c.11.214.314.585.614 1.09.49.827 1.075 1.744 1.759 2.728a53.363 53.363 0 0 0 7.036 8.215c7.903 7.516 17.527 12.05 28.869 12.05v-4c-10.218 0-18.902-4.09-26.112-10.949a49.393 49.393 0 0 1-6.508-7.597 41.236 41.236 0 0 1-1.602-2.484c-.26-.438-.426-.74-.501-.886l-1.93-3.742-1.681 3.86c-.06.137-.2.431-.425.86a32.874 32.874 0 0 1-1.432 2.455 40.984 40.984 0 0 1-6.218 7.537c-7.172 6.847-16.479 10.946-28.247 10.946-11.746 0-20.703-4.08-27.324-10.893a36.53 36.53 0 0 1-5.617-7.495c-.501-.888-.913-1.71-1.24-2.44-.19-.425-.306-.716-.355-.85l-2.326-6.458-1.506 6.698a9.98 9.98 0 0 1-.237.8c-.234.712-.55 1.514-.958 2.382-1.177 2.507-2.85 5.021-5.104 7.372-6.507 6.788-16.446 10.884-30.677 10.884v4zM880 879.033c15.304 0 26.29-4.528 33.565-12.115 2.57-2.68 4.483-5.557 5.837-8.44.824-1.757 1.284-3.152 1.476-4.006l-3.833.24c.295.818.903 2.177 1.874 3.898a40.504 40.504 0 0 0 6.232 8.317c7.349 7.562 17.324 12.106 30.193 12.106 12.85 0 23.125-4.525 31.009-12.053a44.96 44.96 0 0 0 6.826-8.275c1.094-1.711 1.8-3.062 2.154-3.873l-3.611.118c.11.214.314.585.614 1.09.49.827 1.075 1.744 1.759 2.728a53.363 53.363 0 0 0 7.036 8.215c7.903 7.516 17.527 12.05 28.869 12.05v-4c-10.218 0-18.902-4.09-26.112-10.949a49.393 49.393 0 0 1-6.508-7.597 41.236 41.236 0 0 1-1.602-2.484c-.26-.438-.426-.74-.501-.886l-1.93-3.742-1.681 3.86c-.06.137-.2.431-.425.86a32.874 32.874 0 0 1-1.432 2.455 40.984 40.984 0 0 1-6.218 7.537c-7.172 6.847-16.479 10.946-28.247 10.946-11.746 0-20.703-4.08-27.324-10.893a36.53 36.53 0 0 1-5.617-7.495c-.501-.888-.913-1.71-1.24-2.44-.19-.425-.306-.716-.355-.85l-2.326-6.458-1.506 6.698a9.98 9.98 0 0 1-.237.8c-.234.712-.55 1.514-.958 2.382-1.177 2.507-2.85 5.021-5.104 7.372-6.507 6.788-16.446 10.884-30.677 10.884v4z"/></g></g></svg>