<?xml version="1.0" encoding="UTF-8" standalone="no"?>
<svg width="1338px" height="1160px" viewBox="0 0 1338 1160" version="1.1" xmlns="http://www.w3.org/2000/svg" xmlns:xlink="http://www.w3.org/1999/xlink" xmlns:sketch="http://www.bohemiancoding.com/sketch/ns">
    <!-- Generator: Sketch 3.3.2 (12043) - http://www.bohemiancoding.com/sketch -->
    <title>big-letters</title>
    <desc>Created with Sketch.</desc>
    <defs></defs>
    <g id="Page-1" stroke="none" stroke-width="1" fill="none" fill-rule="evenodd" sketch:type="MSPage">
        <g id="big-letters" sketch:type="MSArtboardGroup">
            <path d="M890.267767,474.267767 L1041.26777,323.267767 L1043.03553,321.5 L1039.5,317.964466 L1037.73223,319.732233 L886.732233,470.732233 L884.964466,472.5 L888.5,476.035534 L890.267767,474.267767 L890.267767,474.267767 Z" id="Shape" fill="#323230" sketch:type="MSShapeGroup"></path>
            <path d="M96.9393429,652.566161 C119.733261,653.119369 128.760157,653.517717 139.347209,654.708633 C152.769135,656.218438 163.60743,658.843099 173.461208,663.195367 C195.202863,672.798334 213.417956,691.639437 233.332644,726.279471 C253.360369,761.116122 274.037162,781.494503 298.496214,792.033669 C309.300048,796.688935 320.904795,799.492153 334.4264,800.979371 C345.202072,802.164568 355.811121,802.5 374,802.5 L374,797.5 C337.047451,797.5 319.283134,795.546134 300.474802,787.441808 C277.098772,777.369306 257.193089,757.750905 237.667356,723.787428 C217.26679,688.30225 198.328142,668.712725 175.481357,658.621638 C165.116699,654.043721 153.797345,651.302565 139.906124,649.73997 C129.119747,648.526632 120.00925,648.124595 97.0606571,647.567633 L96.9393429,652.566161 L96.9393429,652.566161 Z" id="Shape" fill="#323230" sketch:type="MSShapeGroup"></path>
            <g id="Path-5-+-Path-6-Copy" sketch:type="MSLayerGroup" transform="translate(314.000000, 435.000000)" stroke="#323230" stroke-width="4">
                <path d="M41.7422043,15 L1.18447082,15" id="Path-5" sketch:type="MSShapeGroup"></path>
                <path d="M15.1290323,0.402207168 L0.0727103065,15.2648726 L14.7400267,29.743536" id="Path-6" sketch:type="MSShapeGroup"></path>
            </g>
            <g id="Path-5-+-Path-6" sketch:type="MSLayerGroup" transform="translate(436.000000, 450.000000) rotate(-135.000000) translate(-436.000000, -450.000000) translate(415.000000, 435.000000)" stroke="#323230" stroke-width="4">
                <path d="M41.7422043,15 L1.18447082,15" id="Path-5" sketch:type="MSShapeGroup"></path>
                <path d="M15.1290323,0.402207168 L0.0727103065,15.2648726 L14.7400267,29.743536" id="Path-6" sketch:type="MSShapeGroup"></path>
            </g>
            <g id="Path-2-+-Line-+-Line-2" sketch:type="MSLayerGroup" transform="translate(141.000000, 175.000000)">
                <path d="M153,0.5 L103.453801,0.5 L3,0.5 L0.5,0.5 L0.5,3 L0.5,153 L5.5,153 L5.5,3 L3,5.5 L103.453801,5.5 L153,5.5 L153,0.5 L153,0.5 Z" id="Shape" fill="#323230" sketch:type="MSShapeGroup"></path>
                <g id="Line-+-Line-2" transform="translate(22.000000, 25.000000)" stroke="#323230" stroke-width="4" sketch:type="MSShapeGroup" stroke-linecap="square">
                    <path d="M0.5,0.5 L22.0522614,22.0522614" id="Line"></path>
                    <path d="M0.5,0.5 L22.0522614,22.0522614" id="Line-2" transform="translate(11.500000, 11.500000) rotate(-90.000000) translate(-11.500000, -11.500000) "></path>
                </g>
            </g>
            <path d="M618,710 C660.525926,710 695,675.525926 695,633 C695,590.474074 660.525926,556 618,556 C575.474074,556 541,590.474074 541,633 C541,675.525926 575.474074,710 618,710 L618,710 Z M618,706 C577.683213,706 545,673.316787 545,633 C545,592.683213 577.683213,560 618,560 C658.316787,560 691,592.683213 691,633 C691,673.316787 658.316787,706 618,706 L618,706 Z" id="Shape" fill="#323230" sketch:type="MSShapeGroup"></path>
            <g id="Path-41-+-Path-43" sketch:type="MSLayerGroup" transform="translate(880.000000, 808.000000)" fill="#323230">
                <path d="M0,33.0334484 C15.3038682,33.0334484 26.2908428,28.5050806 33.5649187,20.9175236 C36.1344668,18.2372391 38.0475398,15.3611763 39.4015651,12.4771714 C40.2261924,10.7207574 40.6860438,9.32611121 40.8780688,8.47228663 L37.0451495,8.71121201 C37.3402155,9.53039623 37.9484793,10.8894472 38.9188495,12.6097827 C40.5196566,15.4477976 42.5799495,18.2811797 45.1513965,20.9272833 C52.4997736,28.4890051 62.4746842,33.033448 75.3444901,33.0334477 C88.1932534,33.0334474 98.469214,28.5075709 106.352948,20.9799544 C109.109773,18.3476586 111.372573,15.5285735 113.178601,12.7048043 C114.272898,10.9938442 114.979294,9.64340694 115.332689,8.83234095 L111.721616,8.95011674 C111.831743,9.16366993 112.036323,9.53468915 112.336076,10.0408481 C112.825531,10.8673356 113.411397,11.7837532 114.094536,12.7677629 C116.039301,15.5690505 118.381752,18.3674099 121.131211,20.9826026 C129.033852,28.4993292 138.658171,33.0334475 150,33.0334477 L150,29.0334477 C139.781852,29.0334475 131.098367,24.9425662 123.887985,18.0842934 C121.347886,15.6682363 119.177952,13.0759708 117.380331,10.4866336 C116.753635,9.58392459 116.219476,8.74838913 115.777818,8.00261105 C115.518903,7.56541065 115.351935,7.26260177 115.276736,7.11677997 L113.347247,3.37520586 L111.665663,7.23455576 C111.605842,7.37184891 111.465634,7.66610034 111.241429,8.09472044 C110.856462,8.83067115 110.380097,9.65647059 109.808874,10.5495922 C108.167163,13.1164478 106.103061,15.6879876 103.590616,18.0869416 C96.4192968,24.9343242 87.1122755,29.0334474 75.34449,29.0334477 C63.5977465,29.0334479 54.6410512,24.952891 48.0200012,18.1396127 C45.7021489,15.7544664 43.8426506,13.1972237 42.4028288,10.6446138 C41.9019582,9.75663777 41.4904539,8.93581485 41.1632316,8.20469826 C40.9731333,7.77995941 40.8566335,7.48941295 40.8084653,7.3556847 L38.4819304,0.896585355 L36.975546,7.59461008 C36.9490092,7.7126042 36.8738485,7.98709492 36.7392052,8.39544366 C36.5045175,9.10720878 36.1885798,9.90860353 35.7807664,10.7772253 C34.6039213,13.2838454 32.9313079,15.7984076 30.6774729,18.1493731 C24.1704543,24.9368161 14.23098,29.0334484 5.05213277e-15,29.0334484 L0,33.0334484 L0,33.0334484 Z" id="Shape" sketch:type="MSShapeGroup"></path>
                <path d="M0,71.0334484 C15.3038682,71.0334484 26.2908428,66.5050806 33.5649187,58.9175236 C36.1344668,56.2372391 38.0475398,53.3611763 39.4015651,50.4771714 C40.2261924,48.7207574 40.6860438,47.3261112 40.8780688,46.4722866 L37.0451495,46.711212 C37.3402155,47.5303962 37.9484793,48.8894472 38.9188495,50.6097827 C40.5196566,53.4477976 42.5799495,56.2811797 45.1513965,58.9272833 C52.4997736,66.4890051 62.4746842,71.033448 75.3444901,71.0334477 C88.1932534,71.0334474 98.469214,66.5075709 106.352948,58.9799544 C109.109773,56.3476586 111.372573,53.5285735 113.178601,50.7048043 C114.272898,48.9938442 114.979294,47.6434069 115.332689,46.832341 L111.721616,46.9501167 C111.831743,47.1636699 112.036323,47.5346892 112.336076,48.0408481 C112.825531,48.8673356 113.411397,49.7837532 114.094536,50.7677629 C116.039301,53.5690505 118.381752,56.3674099 121.131211,58.9826026 C129.033852,66.4993292 138.658171,71.0334475 150,71.0334477 L150,67.0334477 C139.781852,67.0334475 131.098367,62.9425662 123.887985,56.0842934 C121.347886,53.6682363 119.177952,51.0759708 117.380331,48.4866336 C116.753635,47.5839246 116.219476,46.7483891 115.777818,46.002611 C115.518903,45.5654106 115.351935,45.2626018 115.276736,45.11678 L113.347247,41.3752059 L111.665663,45.2345558 C111.605842,45.3718489 111.465634,45.6661003 111.241429,46.0947204 C110.856462,46.8306711 110.380097,47.6564706 109.808874,48.5495922 C108.167163,51.1164478 106.103061,53.6879876 103.590616,56.0869416 C96.4192968,62.9343242 87.1122755,67.0334474 75.34449,67.0334477 C63.5977465,67.0334479 54.6410512,62.952891 48.0200012,56.1396127 C45.7021489,53.7544664 43.8426506,51.1972237 42.4028288,48.6446138 C41.9019582,47.7566378 41.4904539,46.9358149 41.1632316,46.2046983 C40.9731333,45.7799594 40.8566335,45.489413 40.8084653,45.3556847 L38.4819304,38.8965854 L36.975546,45.5946101 C36.9490092,45.7126042 36.8738485,45.9870949 36.7392052,46.3954437 C36.5045175,47.1072088 36.1885798,47.9086035 35.7807664,48.7772253 C34.6039213,51.2838454 32.9313079,53.7984076 30.6774729,56.1493731 C24.1704543,62.9368161 14.23098,67.0334484 5.05213277e-15,67.0334484 L0,71.0334484 L0,71.0334484 Z" id="Shape" sketch:type="MSShapeGroup"></path>
            </g>
        </g>
    </g>
</svg>