<?xml version="1.0" encoding="UTF-8" standalone="no"?>
<svg width="1350px" height="932px" viewBox="0 0 1350 932" version="1.1" xmlns="http://www.w3.org/2000/svg" xmlns:xlink="http://www.w3.org/1999/xlink">
    <!-- Generator: Sketch 48.1 (47250) - http://www.bohemiancoding.com/sketch -->
    <title>Group 8</title>
    <desc>Created with Sketch.</desc>
    <defs></defs>
    <g id="Work" stroke="none" stroke-width="1" fill="none" fill-rule="evenodd" transform="translate(0.000000, -114.000000)">
        <g id="Group-8" transform="translate(-3.000000, 114.000000)">
            <polyline id="Path-56" fill="#B590A8" points="0 290 1354.60146 653.467838 1356 932 2.85913795 932"></polyline>
            <g id="Group-2" transform="translate(167.000000, 0.000000)">
                <polygon id="Triangle-4" stroke="#FFFFFF" stroke-width="4" points="76 85 152 193 0 193"></polygon>
                <g id="Line-+-Line-3" transform="translate(1075.000000, 69.000000)" stroke="#FFFFFF" stroke-linecap="square" stroke-width="4">
                    <path d="M1.2173913,1.2173913 L53.6924624,53.6924624" id="Line"></path>
                    <path d="M1.16666667,52.5 L51.4552765,2.21139018" id="Line-2"></path>
                </g>
                <g id="Group-Copy" transform="translate(608.000000, 193.000000)">
                    <circle id="Oval-12" fill="#F3F1E2" cx="129.118647" cy="144.391392" r="128.245806"></circle>
                    <path d="M257.364453,144.391392 C257.364453,73.5631897 199.94685,16.1455868 129.118647,16.1455868 C58.2904444,16.1455868 0.872841444,73.5631897 0.872841444,144.391392 C76.8753557,144.699351 197.046035,144.03492 257.364453,144.391392 Z" id="Oval-13" fill="#323230"></path>
                    <path d="M51.7436776,221.338876 C55.2850878,221.338876 58.1559679,218.467995 58.1559679,214.926585 C58.1559679,211.385175 55.2850878,208.514295 51.7436776,208.514295 C48.2022675,208.514295 45.3313874,211.385175 45.3313874,214.926585 C45.3313874,218.467995 48.2022675,221.338876 51.7436776,221.338876 Z" id="Oval-15" fill="#323230"></path>
                    <path d="M84.232615,244.423121 C87.7740252,244.423121 90.6449053,241.55224 90.6449053,238.01083 C90.6449053,234.46942 87.7740252,231.59854 84.232615,231.59854 C80.6912049,231.59854 77.8203248,234.46942 77.8203248,238.01083 C77.8203248,241.55224 80.6912049,244.423121 84.232615,244.423121 Z" id="Oval-15" fill="#323230"></path>
                    <circle id="Oval-16" fill="#323230" cx="252.799536" cy="72.5737412" r="71.8176511"></circle>
                    <path d="M194.951494,358.134402 C194.951494,320.831548 164.711556,290.591611 127.408703,290.591611 C90.1058495,290.591611 59.865912,320.831548 59.865912,358.134402 C105.17943,357.763691 148.595979,359.076207 194.951494,358.134402 Z" id="Oval-17" fill="#FBEF4E"></path>
                    <rect id="Rectangle-17" fill="#F3F1E2" x="115.439094" y="267.507366" width="23.084245" height="33.3439094"></rect>
                    <polyline id="Path-55" stroke="#323230" stroke-width="4" points="129.585167 327.756093 197.932883 396.103809 134.000394 460.036298 134.000394 495.621612"></polyline>
                </g>
                <g id="Group-4" transform="translate(417.000000, 0.000000)">
                    <path d="M160.55992,159.151953 L169.421442,193.413375 L137.817908,176.253032 C124.65363,183.316149 109.604382,187.322343 93.619438,187.322343 C41.9148501,187.322343 0,145.407493 0,93.702905 C0,41.9983171 41.9148501,0.0834669774 93.619438,0.0834669774 C145.324026,0.0834669774 187.238876,41.9983171 187.238876,93.702905 C187.238876,119.175875 177.065411,142.272704 160.559939,159.151935 Z" id="Combined-Shape" fill="#FBEF4E"></path>
                    <g id="Group" transform="translate(67.687819, 69.481230)">
                        <path d="M7.97720639,46.450948 L46.217496,8.21065702" id="Line" stroke="#323230" stroke-width="4" stroke-linecap="square"></path>
                        <path d="M46.6928164,46.450948 L8.25760585,8.2106584" id="Line-4" stroke="#323230" stroke-width="4" stroke-linecap="square"></path>
                        <path d="M27.3578908,54.4191208 L27.3578899,0.339183616" id="Line-5" stroke="#323230" stroke-width="4" stroke-linecap="square"></path>
                        <path d="M54.7016048,27.2140772 L0.346009742,27.2140782" id="Line-6" stroke="#323230" stroke-width="4" stroke-linecap="square"></path>
                        <circle id="Oval-20" fill="#FBEF4E" cx="27.2140772" cy="27.2140772" r="17.0994407"></circle>
                    </g>
                </g>
                <path d="M162,206 C219.68046,209.01908 287.5,206 287.5,352.500002 C287.5,499.000004 360.195312,499 413,499" id="Path-20" stroke="#FFFFFF" stroke-width="4" stroke-linecap="round" transform="translate(287.500000, 352.500000) rotate(-270.000000) translate(-287.500000, -352.500000) "></path>
                <g id="Group-5" transform="translate(247.000000, 611.000000)" stroke="#FFFFFF" stroke-linecap="round" stroke-width="4">
                    <path d="M0.61976601,61.3640582 C8.46674877,67.7581469 22.7569273,69.3795293 31.1051416,62.0295447 C39.4533559,54.6795601 52.8875462,55.1613181 59.6101447,61.9736641 C66.3327432,68.7860102 83.1866533,68.3745262 89.0685037,61.6671678 C94.9503541,54.9598095 110.514778,55.4822078 117.446506,61.8686764 C124.378233,68.255145 139.818196,69.0814997 146.623768,61.8280361 C153.429341,54.5745724 170.028402,54.6727867 175.820505,61.861903" id="Path-11"></path>
                    <path d="M0.61976601,32.7532208 C8.46674877,39.1473095 22.7569273,40.7686918 31.1051416,33.4187072 C39.4533559,26.0687226 52.8875462,26.5504806 59.6101447,33.3628267 C66.3327432,40.1751728 83.1866533,39.7636888 89.0685037,33.0563304 C94.9503541,26.348972 110.514778,26.8713704 117.446506,33.257839 C124.378233,39.6443076 139.818196,40.4706623 146.623768,33.2171986 C153.429341,25.9637349 170.028402,26.0619492 175.820505,33.2510656" id="Path-12"></path>
                    <path d="M0.61976601,5.00937842 C8.46674877,11.4034671 22.7569273,13.0248495 31.1051416,5.67486487 C39.4533559,-1.67511974 52.8875462,-1.19336173 59.6101447,5.61898433 C66.3327432,12.4313304 83.1866533,12.0198464 89.0685037,5.31248802 C94.9503541,-1.39487035 110.514778,-0.872471954 117.446506,5.51399664 C124.378233,11.9004652 139.818196,12.7268199 146.623768,5.47335625 C153.429341,-1.78010742 170.028402,-1.68189314 175.820505,5.50722324" id="Path-13"></path>
                </g>
            </g>
        </g>
    </g>
</svg>