<svg width="1350" height="932" viewBox="0 0 1350 932" xmlns="http://www.w3.org/2000/svg"><title>Group 8</title><g fill="none" fill-rule="evenodd"><path fill="#B590A8" d="M-3 290l1354.601 363.468L1353 932H-.14"/><path stroke="#FFF" stroke-width="4" d="M240 85l76 108H164z"/><g stroke="#FFF" stroke-linecap="square" stroke-width="4"><path d="M1240.217 70.217l52.475 52.475M1240.167 121.5l50.288-50.289"/></g><g transform="translate(772 193)"><circle fill="#F3F1E2" cx="129.119" cy="144.391" r="128.246"/><path d="M257.364 144.391c0-70.828-57.417-128.245-128.245-128.245C58.29 16.146.873 73.563.873 144.39c76.002.308 196.173-.356 256.491 0zM51.744 221.339a6.412 6.412 0 1 0 0-12.825 6.412 6.412 0 0 0 0 12.825zM84.233 244.423a6.412 6.412 0 1 0 0-12.824 6.412 6.412 0 0 0 0 12.824z" fill="#323230"/><circle fill="#323230" cx="252.8" cy="72.574" r="71.818"/><path d="M194.951 358.134c0-37.302-30.24-67.542-67.542-67.542-37.303 0-67.543 30.24-67.543 67.542 45.313-.37 88.73.942 135.085 0z" fill="#FBEF4E"/><path fill="#F3F1E2" d="M115.439 267.507h23.084v33.344h-23.084z"/><path stroke="#323230" stroke-width="4" d="M129.585 327.756l68.348 68.348L134 460.036v35.586"/></g><path d="M741.56 159.152l8.861 34.261-31.603-17.16c-13.164 7.063-28.214 11.07-44.199 11.07-51.704 0-93.619-41.916-93.619-93.62 0-51.705 41.915-93.62 93.62-93.62 51.704 0 93.619 41.915 93.619 93.62 0 25.473-10.174 48.57-26.68 65.449z" fill="#FBEF4E"/><g transform="translate(648.688 69.481)"><path d="M7.977 46.45l38.24-38.24M46.693 46.45L8.258 8.21M27.358 54.42V.34M54.702 27.214H.346" stroke="#323230" stroke-width="4" stroke-linecap="square"/><circle fill="#FBEF4E" cx="27.214" cy="27.214" r="17.099"/></g><path d="M598 227c-3.02 57.68 0 125.5-146.5 125.5S305 425.195 305 478" stroke="#FFF" stroke-width="4" stroke-linecap="round"/><g stroke="#FFF" stroke-linecap="round" stroke-width="4"><path d="M411.62 672.364c7.847 6.394 22.137 8.016 30.485.666 8.348-7.35 21.783-6.869 28.505-.056 6.723 6.812 23.577 6.4 29.459-.307 5.881-6.707 21.446-6.185 28.378.202 6.931 6.386 22.371 7.212 29.177-.041 6.805-7.253 23.404-7.155 29.197.034M411.62 643.753c7.847 6.394 22.137 8.016 30.485.666 8.348-7.35 21.783-6.869 28.505-.056 6.723 6.812 23.577 6.4 29.459-.307 5.881-6.707 21.446-6.185 28.378.202 6.931 6.386 22.371 7.213 29.177-.04 6.805-7.254 23.404-7.156 29.197.033M411.62 616.01c7.847 6.393 22.137 8.015 30.485.665 8.348-7.35 21.783-6.868 28.505-.056 6.723 6.812 23.577 6.4 29.459-.307 5.881-6.707 21.446-6.184 28.378.202 6.931 6.386 22.371 7.213 29.177-.04 6.805-7.254 23.404-7.156 29.197.033"/></g></g></svg>