<?xml version="1.0" encoding="UTF-8" standalone="no"?>
<svg width="1350px" height="815px" viewBox="0 0 1350 815" version="1.1" xmlns="http://www.w3.org/2000/svg" xmlns:xlink="http://www.w3.org/1999/xlink">
    <!-- Generator: Sketch 48.2 (47327) - http://www.bohemiancoding.com/sketch -->
    <title>Artboard 2</title>
    <desc>Created with Sketch.</desc>
    <defs></defs>
    <g id="Layouts-Copy" stroke="none" stroke-width="1" fill="none" fill-rule="evenodd">
        <g id="Artboard-2">
            <polyline id="Path-56" fill="#B590A8" points="0 332 1354.60146 695.467838 1356 815 2.85913795 815"></polyline>
            <g id="Group-2" transform="translate(266.000000, 157.000000)">
                <polygon id="Triangle-4" stroke="#F3F1E2" stroke-width="4" points="56 60 112 139 0 139"></polygon>
                <g id="Line-+-Line-3" transform="translate(800.000000, 47.000000)" stroke="#F3F1E2" stroke-linecap="square" stroke-width="4">
                    <path d="M0.913043478,0.913043478 L40.2693468,40.2693468" id="Line"></path>
                    <path d="M0.875,39.375 L38.5914574,1.65854263" id="Line-2"></path>
                </g>
                <g id="Group-Copy" transform="translate(274.000000, 0.000000)">
                    <g id="Group-12">
                        <path d="M309.975812,403.351634 C309.975812,375.848224 287.647486,353.552305 260.1041,353.552305 C232.560714,353.552305 210.232389,375.848224 210.232389,403.351634 C243.690626,403.078309 275.748194,404.046028 309.975812,403.351634 Z" id="Oval-17" fill="#FBEF4E"></path>
                        <rect id="Rectangle-17" fill="#DFDED0" x="251.266076" y="336.532281" width="17.0447623" height="24.5844789"></rect>
                        <ellipse id="Oval-12" fill="#F3F1E2" cx="261.366675" cy="245.75882" rx="94.6931239" ry="94.5556883"></ellipse>
                        <path d="M353.842747,244.89009 C353.459218,244.898263 353.074685,244.902371 352.689193,244.902371 C352.129921,244.902371 351.572672,244.893725 351.017572,244.876561 C305.097676,244.674301 220.746325,245.121153 166.673552,244.902371 C166.673552,192.680706 209.069107,150.346683 261.366675,150.346683 C278.486048,150.346683 294.544369,154.882987 308.401873,162.817484 C317.888205,148.467733 334.181438,139 352.689193,139 C381.975831,139 405.717342,162.707053 405.717342,191.951185 C405.717342,220.064807 383.775935,243.061177 356.059742,244.797136 C356.05978,244.83221 356.059799,244.867288 356.059799,244.902371 C355.332457,244.898079 354.593328,244.893987 353.842747,244.89009 Z" id="Combined-Shape" fill="#29292A"></path>
                        <path d="M204.235157,302.492233 C206.850036,302.492233 208.969814,300.375532 208.969814,297.764449 C208.969814,295.153366 206.850036,293.036665 204.235157,293.036665 C201.620279,293.036665 199.500501,295.153366 199.500501,297.764449 C199.500501,300.375532 201.620279,302.492233 204.235157,302.492233 Z" id="Oval-15" fill="#323230"></path>
                        <path d="M228.224082,319.512257 C230.83896,319.512257 232.958738,317.395556 232.958738,314.784473 C232.958738,312.17339 230.83896,310.056688 228.224082,310.056688 C225.609204,310.056688 223.489426,312.17339 223.489426,314.784473 C223.489426,317.395556 225.609204,319.512257 228.224082,319.512257 Z" id="Oval-15" fill="#323230"></path>
                        <polyline id="Path-55" stroke="#323230" stroke-width="4" stroke-linecap="round" points="261.711141 380.953694 312.177187 431.346495 264.971221 478.483947 264.971221 504.721014"></polyline>
                        <g id="Group-4">
                            <path d="M118.561544,117.334042 L125.08309,142.603766 L101.756541,129.953771 C92.0374415,135.159959 80.9270539,138.112845 69.1259804,138.112845 C30.9487556,138.112845 0,107.209008 0,69.0871927 C0,30.9653775 30.9487556,0.0615402388 69.1259804,0.0615402388 C107.303205,0.0615402388 138.251961,30.9653775 138.251961,69.0871927 C138.251961,87.8640235 130.743678,104.889746 118.561544,117.334042 Z" id="Combined-Shape" fill="#FBEF4E"></path>
                            <path d="M55.8689431,85.4768453 L84.1045058,57.2822621" id="Line" stroke="#29292A" stroke-width="4" stroke-linecap="square"></path>
                            <path d="M84.4554691,85.4768453 L56.0759822,57.2822631" id="Line-4" stroke="#29292A" stroke-width="4" stroke-linecap="square"></path>
                            <path d="M70.1790996,91.3517826 L70.1790989,51.4786213" id="Line-5" stroke="#29292A" stroke-width="4" stroke-linecap="square"></path>
                            <path d="M90.3689349,71.2934921 L50.2342804,71.2934928" id="Line-6" stroke="#29292A" stroke-width="4" stroke-linecap="square"></path>
                            <ellipse id="Oval-20" fill="#FBEF4E" cx="70.0729117" cy="71.2934921" rx="12.6257498" ry="12.6074251"></ellipse>
                        </g>
                    </g>
                </g>
                <g id="Group-5" transform="translate(251.000000, 407.000000)" stroke="#F3F1E2" stroke-linecap="round" stroke-width="4">
                    <path d="M0.454260314,44.8781918 C6.205742,49.5544656 16.6797933,50.7402528 22.7986549,45.3648909 C28.9175165,39.989529 38.7641674,40.3418595 43.6915265,45.324023 C48.6188857,50.3061866 60.9720357,50.0052505 65.2831646,45.099869 C69.5942936,40.1944875 81.0023091,40.5765401 86.0829501,45.247241 C91.1635911,49.9179419 102.480382,50.5222908 107.468558,45.2175189 C112.456733,39.912747 124.62309,39.9845753 128.868438,45.2422873" id="Path-11"></path>
                    <path d="M0.454260314,23.953848 C6.205742,28.6301218 16.6797933,29.815909 22.7986549,24.4405471 C28.9175165,19.0651852 38.7641674,19.4175157 43.6915265,24.3996792 C48.6188857,29.3818428 60.9720357,29.0809067 65.2831646,24.1755252 C69.5942936,19.2701437 81.0023091,19.6521963 86.0829501,24.3228972 C91.1635911,28.9935981 102.480382,29.597947 107.468558,24.2931751 C112.456733,18.9884032 124.62309,19.0602315 128.868438,24.3179435" id="Path-12"></path>
                    <path d="M0.454260314,3.66357526 C6.205742,8.33984906 16.6797933,9.52563618 22.7986549,4.15027431 C28.9175165,-1.22508757 38.7641674,-0.872757087 43.6915265,4.10940645 C48.6188857,9.09156998 60.9720357,8.79063393 65.2831646,3.88525243 C69.5942936,-1.02012906 81.0023091,-0.638076503 86.0829501,4.03262441 C91.1635911,8.70332532 102.480382,9.30767427 107.468558,4.00290233 C112.456733,-1.30186961 124.62309,-1.23004125 128.868438,4.02767073" id="Path-13"></path>
                </g>
            </g>
            <path d="M1010,405 L1010,498.171573 L1103.17157,405 L1010,405 Z" id="Rectangle-45-Copy-12" stroke="#F3F1E2" stroke-width="4" transform="translate(1058.000000, 453.000000) rotate(-270.000000) translate(-1058.000000, -453.000000) "></path>
            <path d="M382,511 C382,486 401,458 435,458 C469,458 456.009346,458 487.004673,458 C518,458 541,434 541,405" id="Path-3" stroke="#F3F1E2" stroke-width="4" stroke-linecap="round"></path>
        </g>
    </g>
</svg>